<ttFont>
<head>
    <!-- Most of this table will be recalculated by the compiler -->
    <tableVersion value="1.0"/>
    <fontRevision value="2.01"/>
    <checkSumAdjustment value="0x6cfba46e"/>
    <magicNumber value="0x5f0f3cf5"/>
    <flags value="00000000 00000011"/>
    <unitsPerEm value="1000"/>
    <created value="Wed Feb  7 19:17:29 2018"/>
    <modified value="Wed Feb  7 19:17:29 2018"/>
    <xMin value="-397"/>
    <yMin value="-577"/>
    <xMax value="1731"/>
    <yMax value="879"/>
    <macStyle value="00000000 00000000"/>
    <lowestRecPPEM value="3"/>
    <fontDirectionHint value="2"/>
    <indexToLocFormat value="0"/>
    <glyphDataFormat value="0"/>
  </head>
          <CharString index="0">
            rmoveto
            -69 callsubr
            -465 hlineto
            -5 -26 -42 -7 -69 callgsubr
            86 -61 callsubr
            return
          </CharString>
          <CharString index="1">
            -106 callgsubr
            45 return
          </CharString>
          <CharString index="2">
            -6 -20 -28 -4 -30 hhcurveto
            -102 callsubr
            return
          </CharString>
          <CharString index="3">
            45 -99 callgsubr
            return
          </CharString>
          <CharString index="4">
            229 callsubr
            6 callgsubr
            vhcurveto
            -86 callsubr
            133 callgsubr
            return
          </CharString>
          <CharString index="5">
            -2 callsubr
            197 -101 callgsubr
            return
          </CharString>
          <CharString index="6">
            rmoveto
            75 -45 47 -95 -95 -45 -47 -75 -17 3 -20 -8 callgsubr
            -3 18 19 vvcurveto
            -47 callsubr
            -145 vlineto
            -45 -20 -35 -75 -34 -34 7 9 -27 vhcurveto
            86 -45 -271 vlineto
            -90 72 -48 95 170 callgsubr
            vhcurveto
            -77 callgsubr
            return
          </CharString>
          <CharString index="7">
            -83 callgsubr
            -197 -35 callsubr
            197 vlineto
            50 -8 25 0 vhcurveto
            return
          </CharString>
          <CharString index="8">
            -4 -9 -41 -10 -49 hhcurveto
            -75 -26 270 callgsubr
            49 41 -10 -4 9 vhcurveto
            return
          </CharString>
          <CharString index="9">
            126 callgsubr
            -191 -91 callgsubr
            return
          </CharString>
          <CharString index="10">
            43 446 hlineto
            0 37 12 44 70 19 -30 -45 vhcurveto
            -200 vlineto
            -45 -20 -31 -75 2 vhcurveto
            -41 vlineto
            0 11 -1 7 82 40 46 70 vhcurveto
            200 vlineto
            69 -44 48 -90 -42 -39 -12 0 vhcurveto
            116 return
          </CharString>
          <CharString index="11">
            hhcurveto
            -105 -76 33 100 hvcurveto
            102 vlineto
            -4 19 22 -3 32 hhcurveto
            94 48 45 95 hvcurveto
            122 -71 callgsubr
            return
          </CharString>
          <CharString index="12">
            -53 callgsubr
            -418 return
          </CharString>
          <CharString index="13">
            -84 callsubr
            5 5 -22 vhcurveto
            return
          </CharString>
          <CharString index="14">
            -88 callgsubr
            28 -5 -11 24 vhcurveto
            return
          </CharString>
          <CharString index="15">
            -104 callgsubr
            50 36 13 23 23 hvcurveto
            return
          </CharString>
          <CharString index="16">
            rmoveto
            -107 callgsubr
            endchar
          </CharString>
          <CharString index="17">
            rmoveto
            -45 -12 -25 -70 -70 -12 26 44 vhcurveto
            return
          </CharString>
          <CharString index="18">
            -94 callsubr
            137 -45 return
          </CharString>
          <CharString index="19">
            -95 callsubr
            -104 callsubr
            return
          </CharString>
          <CharString index="20">
            50 -8 -55 callsubr
            return
          </CharString>
          <CharString index="21">
            40 vlineto
            -2 -13 -23 -3 -21 244 callsubr
            return
          </CharString>
          <CharString index="22">
            47 115 419 rmoveto
            64 27 45 79 79 27 -45 -64 vhcurveto
            -122 -212 vlineto
            244 -287 rmoveto
            -28 callgsubr
            -110 -46 -68 -86 vhcurveto
            -280 vlineto
            -95 59 -49 124 46 38 7 8 27 vhcurveto
            return
          </CharString>
          <CharString index="23">
            -84 callgsubr
            -26 -27 return
          </CharString>
          <CharString index="24">
            5 14 2 15 17 -54 callsubr
            return
          </CharString>
          <CharString index="25">
            47 10 28 0 vhcurveto
            189 -111 hlineto
            -35 -27 -8 0 hvcurveto
            -42 vlineto
            0 26 8 30 69 11 -30 -45 vhcurveto
            -209 vlineto
            -75 -27 -23 -112 -112 -28 23 75 vhcurveto
            149 callsubr
            47 42 -47 hlineto
            -75 1 -16 29 45 vvcurveto
            return
          </CharString>
          <CharString index="26">
            135 callsubr
            -128 hlineto
            return
          </CharString>
          <CharString index="27">
            rmoveto
            -65 30 -37 57 -24 vhcurveto
            91 -40 rlineto
            53 -23 13 -18 -41 vvcurveto
            -23 vlineto
            -55 -29 -32 -93 -48 -38 8 288 callsubr
            -9 28 38 -8 51 hhcurveto
            117 55 47 86 hvcurveto
            27 vlineto
            61 -36 33 -57 26 vhcurveto
            -87 39 rlineto
            -47 20 -17 19 52 vvcurveto
            30 vlineto
            58 18 29 93 41 36 -8 -11 31 vhcurveto
            48 vlineto
            9 -28 -39 8 -41 hhcurveto
            -117 -44 -46 -87 hvcurveto
            return
          </CharString>
          <CharString index="28">
            vlineto
            45 12 25 70 vhcurveto
            82 hlineto
            return
          </CharString>
          <CharString index="29">
            -75 37 -37 90 90 37 37 75 vhcurveto
            return
          </CharString>
          <CharString index="30">
            310 callgsubr
            40 return
          </CharString>
          <CharString index="31">
            -105 callgsubr
            endchar
          </CharString>
          <CharString index="32">
            vlineto
            -70 40 -49 82 3 vhcurveto
            -76 callgsubr
            return
          </CharString>
          <CharString index="33">
            -190 145 rlineto
            42 2 21 28 72 hhcurveto
            26 21 -5 0 hvcurveto
            42 vlineto
            0 -22 5 -25 -95 -45 -42 -75 vhcurveto
            272 callsubr
            45 -42 95 return
          </CharString>
          <CharString index="34">
            8 26 30 2 26 hhcurveto
            70 12 -31 -45 hvcurveto
            return
          </CharString>
          <CharString index="35">
            -197 -63 callgsubr
            return
          </CharString>
          <CharString index="36">
            vlineto
            -87 callsubr
            return
          </CharString>
          <CharString index="37">
            -40 -279 -110 hlineto
            7 21 23 4 28 hhcurveto
            90 47 -42 -75 hvcurveto
            -194 vlineto
            -64 -34 -53 -82 -8 -8 0 1 -8 vhcurveto
            42 vlineto
            -1 7 7 0 6 hhcurveto
            61 14 34 41 hvcurveto
            194 vlineto
            45 -22 30 -70 -26 -20 -2 -8 -26 vhcurveto
            -453 -45 83 vlineto
            -5 -20 -28 -5 -30 hhcurveto
            -90 -47 42 75 hvcurveto
            197 vlineto
            75 47 42 90 9 12 -1 -2 9 vhcurveto
            -41 vlineto
            1 -17 callgsubr
            -70 -22 -30 -45 hvcurveto
            -197 vlineto
            -45 22 -30 70 30 28 4 6 20 vhcurveto
            return
          </CharString>
          <CharString index="38">
            -87 callsubr
            135 return
          </CharString>
          <CharString index="39">
            274 callsubr
            277 173 callgsubr
            -277 rmoveto
            -64 -26 -44 -79 -79 -26 44 64 vhcurveto
            277 vlineto
            64 26 44 79 79 26 -44 -64 vhcurveto
            return
          </CharString>
          <CharString index="40">
            hmoveto
            -105 callgsubr
            return
          </CharString>
          <CharString index="41">
            244 175 -86 callgsubr
            return
          </CharString>
          <CharString index="42">
            6 callsubr
            -26 callsubr
            return
          </CharString>
          <CharString index="43">
            hhcurveto
            -47 -30 -103 callsubr
            return
          </CharString>
          <CharString index="44">
            -47 -75 hvcurveto
            -45 callsubr
            return
          </CharString>
          <CharString index="45">
            vlineto
            -78 callsubr
            return
          </CharString>
          <CharString index="46">
            vlineto
            81 53 33 84 hvcurveto
            return
          </CharString>
          <CharString index="47">
            -40 285 -479 hlineto
            -103 callgsubr
            return
          </CharString>
          <CharString index="48">
            hhcurveto
            95 48 48 78 hvcurveto
            197 -71 callsubr
            return
          </CharString>
          <CharString index="49">
            -75 -20 30 45 hvcurveto
            155 vlineto
            190 -144 rlineto
            -11 vlineto
            -48 -24 -27 -71 vhcurveto
            return
          </CharString>
          <CharString index="50">
            -62 callgsubr
            360 180 vlineto
            return
          </CharString>
          <CharString index="51">
            58 323 563 rmoveto
            -486 vlineto
            0 -43 -36 -65 -63 -32 34 67 vhcurveto
            421 -50 -421 vlineto
            -93 49 -52 95 64 46 30 0 vhcurveto
            -27 return
          </CharString>
          <CharString index="52">
            25 0 vhcurveto
            return
          </CharString>
          <CharString index="53">
            vvcurveto
            -66 callgsubr
            return
          </CharString>
          <CharString index="54">
            290 callgsubr
            -534 -40 101 94 callgsubr
            return
          </CharString>
          <CharString index="55">
            -25 callgsubr
            331 callgsubr
            40 return
          </CharString>
          <CharString index="56">
            rmoveto
            -66 callgsubr
            274 hlineto
            -83 callgsubr
            -104 vlineto
            -61 -28 -14 -86 vhcurveto
            -163 hlineto
            2 10 1 11 12 vvcurveto
            319 146 rmoveto
            -69 callsubr
            -465 hlineto
            -5 -26 -42 -7 -69 callgsubr
            55 -61 callsubr
            -294 -414 143 callsubr
            58 40 18 31 22 hvcurveto
            160 -57 hlineto
            -92 callgsubr
            return
          </CharString>
          <CharString index="57">
            rmoveto
            -42 -32 -18 -37 -12 hvcurveto
            18 -26 -36 11 -47 hhcurveto
            -110 -50 -57 -86 hvcurveto
            -78 vlineto
            -68 31 -50 68 -18 vhcurveto
            -27 -7 -23 -22 -35 vvcurveto
            -16 vlineto
            -54 43 -31 75 vhcurveto
            60 hlineto
            73 10 -29 -40 hvcurveto
            -11 vlineto
            -46 -32 -29 -93 vhcurveto
            -40 hlineto
            -68 -40 11 22 -41 hvcurveto
            -50 vlineto
            -16 31 49 -12 69 hhcurveto
            41 hlineto
            128 46 47 74 hvcurveto
            10 vlineto
            72 -37 42 -97 vhcurveto
            -59 hlineto
            -54 -18 17 35 42 22 19 43 110 50 57 86 hvcurveto
            78 vlineto
            40 -11 34 -23 25 vhcurveto
            11 12 17 8 22 hhcurveto
            33 51 hlineto
            return
          </CharString>
          <CharString index="58">
            -86 callgsubr
            45 40 rmoveto
            178 return
          </CharString>
          <CharString index="59">
            -19 9 -14 24 return
          </CharString>
          <CharString index="60">
            45 20 35 75 75 20 -35 -45 vhcurveto
            return
          </CharString>
          <CharString index="61">
            rmoveto
            -523 vlineto
            -64 -30 -44 -79 -79 -30 44 64 vhcurveto
            523 -50 -523 vlineto
            104 callgsubr
            523 vlineto
            return
          </CharString>
          <CharString index="62">
            -258 -35 callgsubr
            return
          </CharString>
          <CharString index="63">
            -96 callsubr
            292 -110 hlineto
            6 -28 -29 4 -28 213 callgsubr
            215 -201 48 callsubr
            endchar
          </CharString>
          <CharString index="64">
            rmoveto
            -35 -68 -35 68 rlineto
            -36 hlineto
            48 -105 rlineto
            46 hlineto
            48 105 rlineto
            endchar
          </CharString>
          <CharString index="65">
            191 callgsubr
            73 34 callgsubr
            371 vlineto
            -84 callgsubr
            vhcurveto
            return
          </CharString>
          <CharString index="66">
            11 -27 -21 -14 callsubr
            return
          </CharString>
          <CharString index="67">
            -40 285 -479 hlineto
            35 callgsubr
            return
          </CharString>
          <CharString index="68">
            -73 callgsubr
            -23 -17 return
          </CharString>
          <CharString index="69">
            -75 51 -46 95 38 26 7 4 15 vhcurveto
            -134 278 callgsubr
            return
          </CharString>
          <CharString index="70">
            -21 callgsubr
            100 40 return
          </CharString>
          <CharString index="71">
            vlineto
            -89 callsubr
            -317 vlineto
            -96 67 -42 95 57 44 10 6 22 vhcurveto
            return
          </CharString>
          <CharString index="72">
            8 callsubr
            -29 -34 callsubr
            24 129 callsubr
            return
          </CharString>
          <CharString index="73">
            5 8 -28 vhcurveto
            -43 vlineto
            -7 25 return
          </CharString>
          <CharString index="74">
            27 -20 -36 16 -51 hhcurveto
            return
          </CharString>
          <CharString index="75">
            -109 170 rlineto
            42 -27 -26 17 -45 hhcurveto
            -11 -9 -1 -1 -7 hvcurveto
            return
          </CharString>
          <CharString index="76">
            68 callsubr
            -34 callgsubr
            return
          </CharString>
          <CharString index="77">
            11 callgsubr
            vhcurveto
            return
          </CharString>
          <CharString index="78">
            -72 callgsubr
            73 184 callsubr
            -229 -40 105 hlineto
            175 callsubr
            return
          </CharString>
          <CharString index="79">
            -37 callgsubr
            44 vlineto
            -7 -30 -50 -9 -63 -44 callsubr
          </CharString>
          <CharString index="80">
            hhcurveto
            -82 -50 25 75 hvcurveto
            52 -72 callgsubr
            53 184 callsubr
            return
          </CharString>
          <CharString index="81">
            -141 -9 callsubr
            return
          </CharString>
          <CharString index="82">
            -7 -32 -21 -3 -40 hhcurveto
            -75 -32 33 51 hvcurveto
            return
          </CharString>
          <CharString index="83">
            23 20 -5 -21 hvcurveto
            -82 vlineto
            -92 callgsubr
            -531 177 callgsubr
            -60 -27 -14 -82 -1 vhcurveto
            13 -9 -21 7 -32 hhcurveto
            -103 178 callgsubr
            return
          </CharString>
          <CharString index="84">
            rmoveto
            -37 -105 rlineto
            37 329 callgsubr
          </CharString>
          <CharString index="85">
            42 vlineto
            -9 -35 -35 -7 -43 hhcurveto
            -75 -47 32 64 hvcurveto
            return
          </CharString>
          <CharString index="86">
            vlineto
            -30 callsubr
            return
          </CharString>
          <CharString index="87">
            -44 callgsubr
            151 vlineto
            190 -144 rlineto
            -72 vlineto
            -4 -9 -31 -10 -49 hhcurveto
            347 16 callgsubr
          </CharString>
          <CharString index="88">
            vlineto
            -8 -20 -32 -7 190 callsubr
            return
          </CharString>
          <CharString index="89">
            -40 285 -479 vlineto
            -106 callgsubr
            vlineto
            return
          </CharString>
          <CharString index="90">
            49 31 -10 -4 9 hvcurveto
            -201 vlineto
            -190 145 rlineto
            41 4 27 29 70 hhcurveto
            return
          </CharString>
          <CharString index="91">
            179 callgsubr
            276 45 -226 268 197 45 -197 263 226 45 vlineto
            return
          </CharString>
          <CharString index="92">
            -61 callgsubr
            217 hmoveto
            -143 301 callsubr
            -43 -4 -7 -21 hvcurveto
            136 vlineto
            399 251 callsubr
            -604 vmoveto
            -97 callsubr
            285 40 -1072 72 callsubr
            427 vlineto
            -2 callgsubr
            -117 147 callgsubr
            endchar
          </CharString>
          <CharString index="93">
            5 -3 callsubr
            return
          </CharString>
          <CharString index="94">
            235 callsubr
            331 callgsubr
            40 return
          </CharString>
          <CharString index="95">
            vlineto
            -47 17 -30 37 -16 vhcurveto
            -38 -16 -19 -31 -46 vvcurveto
            return
          </CharString>
          <CharString index="96">
            58 124 563 rmoveto
            -49 -563 50 489 303 callsubr
            -432 50 432 vlineto
            85 -53 48 -83 -46 -47 -18 -10 -25 vhcurveto
            return
          </CharString>
          <CharString index="97">
            374 50 callgsubr
            -754 -40 272 vlineto
            0 13 -55 callgsubr
            -122 vlineto
            -61 -25 -37 -72 -25 -29 4 3 -19 vhcurveto
            124 -45 -268 vlineto
            -130 95 -43 118 -3 vhcurveto
            -149 -90 rlineto
            -4 vlineto
            66 -10 161 108 rlineto
            41 vlineto
            -1 -14 -35 -1 -16 -96 callsubr
            292 -110 hlineto
            6 -28 -29 4 -28 213 callgsubr
            215 -201 48 callsubr
            return
          </CharString>
          <CharString index="98">
            -62 callsubr
            211 return
          </CharString>
          <CharString index="99">
            vlineto
            45 15 35 70 return
          </CharString>
          <CharString index="100">
            195 530 364 rmoveto
            69 -33 44 -75 7 vhcurveto
            120 183 40 -625 -40 397 -121 vlineto
            -44 -5 -27 -18 -14 -30 rrcurveto
            35 -16 97 callsubr
            19 35 16 vhcurveto
            11 -23 20 -17 29 -8 -87 -156 rcurveline
            186 callgsubr
            3 2 0 3 hhcurveto
            4 hlineto
            78 callsubr
            56 14 24 42 60 vvcurveto
            -431 248 rmoveto
            45 14 37 70 70 18 -37 -45 vhcurveto
            -248 vlineto
            -45 -19 -37 -70 -70 -13 37 45 vhcurveto
            215 248 rmoveto
            75 callgsubr
            return
          </CharString>
          <CharString index="101">
            504 176 rmoveto
            60 callgsubr
            70 15 -30 -45 vhcurveto
            -136 vlineto
            -45 -15 -30 -70 vhcurveto
            328 vmoveto
            75 callsubr
            90 40 32 85 vhcurveto
            136 275 callsubr
            -90 vhcurveto
            -163 -504 rmoveto
            41 vlineto
            -1 -14 -35 -1 -16 -96 callsubr
            334 40 -651 -40 272 hlineto
            0 13 -55 callgsubr
            -122 vlineto
            -61 -25 -37 -72 -25 -29 4 3 -19 vhcurveto
            124 -45 -268 vlineto
            -130 95 -43 118 -3 vhcurveto
            -149 -90 rlineto
            -4 vlineto
            66 -10 rlineto
            return
          </CharString>
          <CharString index="102">
            -107 callsubr
            172 -456 155 callsubr
            return
          </CharString>
          <CharString index="103">
            62 10 33 0 vhcurveto
            121 40 -259 -40 93 hlineto
            0 -10 -32 -63 vvcurveto
            return
          </CharString>
          <CharString index="104">
            148 callsubr
            -33 callsubr
            return
          </CharString>
          <CharString index="105">
            -70 -22 30 45 hvcurveto
            return
          </CharString>
          <CharString index="106">
            -79 82 callgsubr
            -523 vlineto
            -8 -28 -38 -7 54 callgsubr
            109 40 return
          </CharString>
          <CharString index="107">
            rmoveto
            -266 -277 rlineto
            63 hlineto
            111 117 87 92 6 10 2 3 rlinecurve
            0 -3 -57 -85 vvcurveto
            -36 82 callgsubr
            -228 -145 116 39 callsubr
            -30 4 -26 198 callsubr
            20 36 220 callgsubr
            return
          </CharString>
          <CharString index="108">
            -34 -26 -24 -40 -39 vvcurveto
            -43 26 -22 52 vhcurveto
            12 42 -12 hlineto
            -26 -13 9 27 32 19 36 32 24 hvcurveto
            return
          </CharString>
          <CharString index="109">
            5 -16 5 -42 -26 vvcurveto
            -138 vlineto
            -45 -15 -33 -70 -27 -28 3 7 -30 vhcurveto
            134 -45 -283 45 107 vlineto
            -6 26 28 -4 31 hhcurveto
            89 41 45 75 hvcurveto
            138 vlineto
            43 -5 24 -4 17 vhcurveto
            return
          </CharString>
          <CharString index="110">
            458 vmoveto
            -416 -19 callsubr
            352 vlineto
            endchar
          </CharString>
          <CharString index="111">
            -107 85 667 rmoveto
            -14 -104 rlineto
            -66 -45 65 -402 hlineto
            -78 45 -41 82 26 35 6 3 10 vhcurveto
            46 vlineto
            -4 -11 -33 -6 -27 hhcurveto
            -50 -27 19 55 hvcurveto
            402 137 45 -137 104 vlineto
            return
          </CharString>
          <CharString index="112">
            vlineto
            -31 callsubr
            return
          </CharString>
          <CharString index="113">
            -90 -37 -35 -75 hvcurveto
            return
          </CharString>
          <CharString index="114">
            -359 2 callgsubr
            return
          </CharString>
          <CharString index="115">
            vlineto
            -49 -25 -35 -73 -37 return
          </CharString>
          <CharString index="116">
            -49 -28 -35 -73 -42 -40 8 9 -32 vhcurveto
            -44 vlineto
            -9 35 37 -6 42 hhcurveto
            95 51 48 78 hvcurveto
            return
          </CharString>
          <CharString index="117">
            -95 -45 -42 -75 hvcurveto
            return
          </CharString>
          <CharString index="118">
            161 callsubr
            -188 vlineto
            -49 -25 -35 -73 -25 -47 8 8 -36 vhcurveto
            11 18 5 22 27 vvcurveto
            197 275 callsubr
            -100 -95 -45 -42 -75 vhcurveto
            272 callsubr
            45 -42 95 36 29 6 10 21 vhcurveto
            -7 28 75 -17 43 hhcurveto
            95 48 48 78 hvcurveto
            return
          </CharString>
          <CharString index="119">
            -94 callsubr
            163 -306 vlineto
            -98 callsubr
            151 -303 hlineto
            -81 callgsubr
            return
          </CharString>
          <CharString index="120">
            rmoveto
            -17 33 -21 49 35 vvcurveto
            57 40 18 46 12 13 -1 -2 13 vhcurveto
            40 vlineto
            2 -14 -14 2 -14 hhcurveto
            -66 -61 -32 -84 -42 18 -41 19 -34 hvcurveto
            -287 -40 293 -100 -88 284 callsubr
            -6 152 callgsubr
            22 hlineto
            75 20 -29 -45 hvcurveto
            -42 vlineto
            -48 -32 -26 -75 -39 -29 2 6 -30 vhcurveto
            86 -42 -232 42 105 vlineto
            -6 28 32 -3 38 hhcurveto
            106 46 38 78 hvcurveto
            42 vlineto
            75 -45 41 -95 vhcurveto
            -22 hlineto
            -75 -20 29 45 hvcurveto
            6 302 callgsubr
            142 95 40 hlineto
            endchar
          </CharString>
          <CharString index="121">
            vvcurveto
            52 11 30 63 66 4 -31 -52 vhcurveto
            return
          </CharString>
          <CharString index="122">
            29 51 135 rmoveto
            -89 49 -51 129 42 59 7 7 40 vhcurveto
            41 vlineto
            -8 -48 -50 -5 -43 hhcurveto
            -109 -24 39 59 hvcurveto
            55 vlineto
            45 25 27 75 vhcurveto
            65 hlineto
            14 12 -1 -2 9 hvcurveto
            -136 -153 rlineto
            52 hlineto
            118 132 rlineto
            7 -12 2 -16 -20 vvcurveto
            -30 45 30 vlineto
            75 -36 39 -87 vhcurveto
            -67 182 callsubr
            153 142 95 40 -459 -40 319 -100 -108 30 callsubr
            return
          </CharString>
          <CharString index="123">
            rmoveto
            -285 40 609 -70 callsubr
            return
          </CharString>
          <CharString index="124">
            -87 callgsubr
            144 vlineto
            -10 31 24 -6 40 hhcurveto
            95 45 47 75 hvcurveto
            -66 callgsubr
            93 40 -450 -40 312 hlineto
            -84 callgsubr
            -39 -26 7 9 -30 vhcurveto
            return
          </CharString>
          <CharString index="125">
            rlineto
            51 43 39 33 78 vvcurveto
            36 39 callsubr
            vhcurveto
            -36 vlineto
            -78 34 -32 52 -43 vhcurveto
            -113 -94 66 -8 return
          </CharString>
          <CharString index="126">
            -82 callsubr
            endchar
          </CharString>
          <CharString index="127">
            47 vlineto
            -9 -30 -43 -8 -42 hhcurveto
            -93 -26 34 55 hvcurveto
            406 vlineto
            55 26 34 93 42 41 -8 -9 30 vhcurveto
            47 vlineto
            8 -28 -40 8 -45 hhcurveto
            -117 -52 -51 -84 hvcurveto
            return
          </CharString>
          <CharString index="128">
            -40 272 hlineto
            0 13 -55 callgsubr
            -122 vlineto
            -61 -25 -37 -72 -25 -29 4 3 -19 vhcurveto
            124 -45 -268 vlineto
            -37 callgsubr
            return
          </CharString>
          <CharString index="129">
            vlineto
            -90 72 -48 95 170 callgsubr
            vhcurveto
            -77 callgsubr
            endchar
          </CharString>
          <CharString index="130">
            -8 hlineto
            -123 -84 -37 -122 -1 hvcurveto
            -1 45 vlineto
            83 49 35 113 vhcurveto
            10 hlineto
            123 40 -48 -93 hvcurveto
            -46 -100 -40 100 -77 callsubr
            -100 return
          </CharString>
          <CharString index="131">
            41 vlineto
            -11 -36 -32 -4 -53 hhcurveto
            -94 -33 35 53 -54 callgsubr
            return
          </CharString>
          <CharString index="132">
            rmoveto
            47 25 32 39 39 -25 31 -47 -46 -26 -31 -39 -39 26 -32 46 hvcurveto
            33 vmoveto
            -23 -14 15 23 22 14 15 23 23 14 -15 -22 -23 -14 -15 -23 hvcurveto
            endchar
          </CharString>
          <CharString index="133">
            60 335 139 rmoveto
            -64 -31 -40 -79 -79 -31 40 64 vhcurveto
            62 vlineto
            64 31 44 79 79 31 -44 -64 vhcurveto
            -3 261 rmoveto
            -64 -28 -44 -79 -79 -28 44 64 vhcurveto
            65 vlineto
            64 28 40 79 79 28 -40 -64 vhcurveto
            -264 -65 rmoveto
            -62 25 -47 55 -21 vhcurveto
            -57 -22 -26 -47 -62 vvcurveto
            -62 vlineto
            -86 50 -63 214 callsubr
            50 63 86 vhcurveto
            62 vlineto
            62 -26 47 -57 22 vhcurveto
            55 21 25 47 62 vvcurveto
            65 vlineto
            86 -47 63 216 callsubr
            -47 -63 -86 vhcurveto
            endchar
          </CharString>
          <CharString index="134">
            -19 callgsubr
            48 hlineto
            -32 callsubr
            return
          </CharString>
          <CharString index="135">
            419 251 -59 callgsubr
            return
          </CharString>
          <CharString index="136">
            146 hlineto
            -16 callgsubr
            -24 5 -32 -8 callgsubr
            -5 31 25 vvcurveto
            -30 callgsubr
            -146 163 callgsubr
            181 callsubr
            return
          </CharString>
          <CharString index="137">
            hlineto
            214 callgsubr
            -13 -12 callsubr
            return
          </CharString>
          <CharString index="138">
            rmoveto
            49 callgsubr
            -945 -40 800 -125 -681 73 callgsubr
            endchar
          </CharString>
          <CharString index="139">
            286 callgsubr
            56 56 6 12 41 vhcurveto
            -107 44 -99 callgsubr
            -144 -495 vlineto
            -12 -49 -52 -6 -52 133 callsubr
            endchar
          </CharString>
          <CharString index="140">
            -45 hmoveto
            44 callgsubr
            return
          </CharString>
          <CharString index="141">
            209 291 43 callgsubr
            286 40 -640 -40 86 -307 vlineto
            70 callsubr
            41 vmoveto
            -62 callgsubr
            307 180 vlineto
            return
          </CharString>
          <CharString index="142">
            rmoveto
            -51 callgsubr
            48 hlineto
            -32 callsubr
            396 2 rmoveto
            -6 hlineto
            -76 -41 -39 -70 -6 0 -7 1 -6 hvcurveto
            -21 59 52 callsubr
            43 hlineto
            0 -10 226 callgsubr
            endchar
          </CharString>
          <CharString index="143">
            -78 callsubr
            150 callgsubr
          </CharString>
          <CharString index="144">
            -81 callgsubr
            115 326 rmoveto
            -147 hlineto
            -83 callsubr
            148 hlineto
            return
          </CharString>
          <CharString index="145">
            -96 rmoveto
            -107 callgsubr
            return
          </CharString>
          <CharString index="146">
            vlineto
            -16 callgsubr
            return
          </CharString>
          <CharString index="147">
            vvcurveto
            -191 vlineto
            -75 43 -37 80 80 43 37 75 vhcurveto
            33 callgsubr
          </CharString>
          <CharString index="148">
            rmoveto
            52 47 callsubr
            return
          </CharString>
          <CharString index="149">
            52 32 vlineto
            115 60 34 111 hvcurveto
            56 106 callgsubr
            -57 vlineto
            -87 -45 -15 -87 vhcurveto
            return
          </CharString>
          <CharString index="150">
            17 hlineto
            75 20 -29 -45 hvcurveto
            -43 13 callgsubr
            return
          </CharString>
          <CharString index="151">
            -75 40 -47 95 95 40 47 75 vhcurveto
            return
          </CharString>
          <CharString index="152">
            vlineto
            80 -25 45 -88 -88 -31 -44 -81 return
          </CharString>
          <CharString index="153">
            rmoveto
            -55 -39 -29 -40 -33 vhcurveto
            -40 33 -39 29 55 vvcurveto
            42 vlineto
            136 callgsubr
          </CharString>
          <CharString index="154">
            119 callgsubr
            -21 184 callgsubr
            23 30 103 callsubr
            return
          </CharString>
          <CharString index="155">
            rmoveto
            -6 -16 -34 -4 -35 hhcurveto
            60 callgsubr
            32 28 -4 -6 25 vhcurveto
            return
          </CharString>
          <CharString index="156">
            334 604 rmoveto
            219 40 -573 -40 86 -307 230 callgsubr
            -187 194 callgsubr
            -260 307 callsubr
            307 180 vlineto
            return
          </CharString>
          <CharString index="157">
            rmoveto
            216 vlineto
            208 -220 rlineto
            -51 -11 -30 -29 321 callsubr
            return
          </CharString>
          <CharString index="158">
            143 141 104 40 -452 -40 303 -99 -98 hlineto
            -85 -45 -30 -75 hvcurveto
            -4 vlineto
            -75 45 -31 85 vhcurveto
            42 hlineto
            65 20 -19 -45 hvcurveto
            -18 vlineto
            -55 -22 -19 -85 -40 -68 5 12 -56 vhcurveto
            return
          </CharString>
          <CharString index="159">
            rlineto
            48 -17 -19 21 65 callgsubr
            27 9 -20 -29 12 hvcurveto
            55 -139 rlineto
            return
          </CharString>
          <CharString index="160">
            9 callsubr
            53 130 -213 45 604 return
          </CharString>
          <CharString index="161">
            -4 callsubr
            -157 vlineto
            -76 43 -47 return
          </CharString>
          <CharString index="162">
            35 50 393 rmoveto
            -92 58 -52 91 40 39 6 17 32 vhcurveto
            -128 vlineto
            -55 -27 -48 -93 -48 -44 11 11 -31 vhcurveto
            -49 vlineto
            -9 28 44 -10 51 hhcurveto
            119 51 65 84 hvcurveto
            379 173 callgsubr
            -201 rmoveto
            -19 -29 -40 -8 -41 hhcurveto
            -63 -37 31 67 hvcurveto
            130 203 callgsubr
          </CharString>
          <CharString index="163">
            73 callgsubr
            197 vlineto
            50 -8 25 0 vhcurveto
            return
          </CharString>
          <CharString index="164">
            -101 callgsubr
            -90 134 callsubr
            -50 -137 vlineto
            -83 callsubr
            353 return
          </CharString>
          <CharString index="165">
            rmoveto
            3 18 22 5 48 hhcurveto
            65 19 -22 -42 hvcurveto
            -35 vlineto
            -36 -8 -33 -65 vhcurveto
            -43 -38 43 hlineto
            65 -1 8 -29 -36 vvcurveto
            -48 vlineto
            -42 -20 -22 -65 -48 -20 5 7 -31 vhcurveto
            -39 vlineto
            -7 28 32 -4 39 hhcurveto
            83 42 37 65 hvcurveto
            48 vlineto
            36 -13 36 -34 13 vhcurveto
            33 13 14 39 36 vvcurveto
            40 vlineto
            62 -2 -41 35 -81 hhcurveto
            -45 -26 -4 -3 -17 hvcurveto
            endchar
          </CharString>
          <CharString index="166">
            -118 240 566 rmoveto
            -60 -19 -20 -27 -37 hvcurveto
            44 -49 -563 50 465 vlineto
            36 50 14 16 42 hhcurveto
            36 49 hlineto
            return
          </CharString>
          <CharString index="167">
            180 callgsubr
            -666 return
          </CharString>
          <CharString index="168">
            rmoveto
            10 -58 -40 -12 -55 27 -74 36 rcurveline
            -61 30 -70 -23 -72 vvcurveto
            -11 2 -10 0 vhcurveto
            37 hlineto
            -10 58 44 10 51 -25 74 -36 rcurveline
            62 -30 69 23 72 vvcurveto
            11 -2 10 0 vhcurveto
            return
          </CharString>
          <CharString index="169">
            -90 callsubr
            101 -79 callsubr
            return
          </CharString>
          <CharString index="170">
            -479 vlineto
            -105 callsubr
            -37 -30 -7 -14 -22 hvcurveto
            7 return
          </CharString>
          <CharString index="171">
            -83 callgsubr
            -73 vlineto
            -61 -28 -14 -86 vhcurveto
            -20 -128 hlineto
            return
          </CharString>
          <CharString index="172">
            1 7 10 1 9 hhcurveto
            return
          </CharString>
          <CharString index="173">
            -45 rmoveto
            -4 62 vlineto
            166 137 46 38 27 26 11 11 rlinecurve
            50 vlineto
            -17 431 237 callsubr
            -127 -35 callsubr
            127 -71 callsubr
            167 hlineto
            return
          </CharString>
          <CharString index="174">
            39 callgsubr
            -51 257 callgsubr
            50 42 9 6 23 vhcurveto
            -80 301 callgsubr
            -483 vlineto
            254 callsubr
            51 -72 callgsubr
            78 vlineto
            47 8 28 0 vhcurveto
            endchar
          </CharString>
          <CharString index="175">
            245 callsubr
            42 8 9 27 vhcurveto
            return
          </CharString>
          <CharString index="176">
            -100 -98 30 callsubr
            return
          </CharString>
          <CharString index="177">
            112 callgsubr
            vhcurveto
            6 6 0 5 hhcurveto
            -172 -199 rlineto
            56 hlineto
            178 210 rlineto
            return
          </CharString>
          <CharString index="178">
            -19 36 666 rmoveto
            -45 252 vlineto
            -258 -576 rlineto
            -45 305 45 -252 vlineto
            258 576 rlineto
            45 vlineto
            return
          </CharString>
          <CharString index="179">
            272 callgsubr
            vlineto
            -12 callgsubr
            return
          </CharString>
          <CharString index="180">
            175 -75 callgsubr
            return
          </CharString>
          <CharString index="181">
            hhcurveto
            -75 -29 270 callgsubr
            11 8 0 -1 10 vhcurveto
            42 vlineto
            1 -9 -10 0 -10 268 callsubr
            54 -46 95 return
          </CharString>
          <CharString index="182">
            330 callsubr
            hvcurveto
            -136 vlineto
            -85 40 -32 90 return
          </CharString>
          <CharString index="183">
            hlineto
            10 callsubr
            return
          </CharString>
          <CharString index="184">
            rmoveto
            182 -230 rlineto
            -23 -12 -25 -13 -50 hhcurveto
            -75 -20 30 45 hvcurveto
            190 12 rmoveto
            -179 226 rlineto
            20 13 25 14 46 hhcurveto
            72 23 -34 -42 hvcurveto
            endchar
          </CharString>
          <CharString index="185">
            81 -150 rlineto
            49 hlineto
            -87 155 rlineto
            return
          </CharString>
          <CharString index="186">
            -40 285 -479 hlineto
            -106 callsubr
            432 vlineto
            -73 callsubr
            return
          </CharString>
          <CharString index="187">
            -38 callgsubr
            endchar
          </CharString>
          <CharString index="188">
            rmoveto
            -101 -37 40 86 hvcurveto
            1 vlineto
            80 54 33 83 hvcurveto
            17 270 callsubr
            vhcurveto
            return
          </CharString>
          <CharString index="189">
            -151 45 151 return
          </CharString>
          <CharString index="190">
            -40 309 69 callsubr
            return
          </CharString>
          <CharString index="191">
            -45 -20 -35 -75 -75 -20 35 45 vhcurveto
            return
          </CharString>
          <CharString index="192">
            rmoveto
            -79 58 -51 114 302 callsubr
            vhcurveto
            24 callsubr
            return
          </CharString>
          <CharString index="193">
            -390 -211 -38 rmoveto
            8 callgsubr
            -88 vlineto
            -90 123 callgsubr
            6 callgsubr
            vhcurveto
            -86 callsubr
            88 -8 callsubr
            67 18 -34 -43 vhcurveto
            -71 45 71 vlineto
            43 18 34 67 170 callsubr
            -41 -7 vlineto
            -78 -40 -38 return
          </CharString>
          <CharString index="194">
            rmoveto
            55 -105 rlineto
            37 hlineto
            -37 105 rlineto
            endchar
          </CharString>
          <CharString index="195">
            -81 callsubr
            -92 callgsubr
            return
          </CharString>
          <CharString index="196">
            23 66 666 rmoveto
            -337 vlineto
            8 73 26 4 41 hhcurveto
            78 21 -36 -65 hvcurveto
            -107 vlineto
            -55 -29 -37 -93 -48 -43 13 12 -30 vhcurveto
            -51 vlineto
            -10 28 42 -10 51 hhcurveto
            117 55 54 84 hvcurveto
            107 vlineto
            87 -40 62 -109 -27 -30 -2 -4 -33 vhcurveto
            237 225 46 vlineto
            endchar
          </CharString>
          <CharString index="197">
            295 callsubr
            -101 180 callsubr
            49 51 16 20 0 vvcurveto
            endchar
          </CharString>
          <CharString index="198">
            203 173 rmoveto
            132 callsubr
            return
          </CharString>
          <CharString index="199">
            -97 -104 callsubr
            return
          </CharString>
          <CharString index="200">
            vlineto
            112 callgsubr
            34 32 6 6 26 vhcurveto
            -87 -95 callsubr
            return
          </CharString>
          <CharString index="201">
            -100 -70 hlineto
            102 callgsubr
            return
          </CharString>
          <CharString index="202">
            -126 346 267 rmoveto
            127 callsubr
            -165 390 rmoveto
            165 40 -366 -40 156 -247 28 callgsubr
            return
          </CharString>
          <CharString index="203">
            100 146 callgsubr
            185 95 40 -470 vlineto
            330 -40 rmoveto
            -185 vlineto
            -11 -1 -10 -3 -10 vhcurveto
            -178 216 rlineto
            87 -265 rmoveto
            -75 -20 35 45 hvcurveto
            132 vlineto
            161 -197 rlineto
            -9 -14 -22 -6 -30 hhcurveto
            endchar
          </CharString>
          <CharString index="204">
            -34 20 -59 hhcurveto
            -90 -38 -46 -75 hvcurveto
            -248 vlineto
            -75 37 -46 90 59 35 return
          </CharString>
          <CharString index="205">
            rmoveto
            157 callsubr
            28 -2 -4 27 vhcurveto
            -9 -16 -5 -21 -23 193 callsubr
            return
          </CharString>
          <CharString index="206">
            rmoveto
            49 callgsubr
            -580 -40 435 -125 -316 174 callgsubr
            endchar
          </CharString>
          <CharString index="207">
            -40 292 hlineto
            -102 callgsubr
            return
          </CharString>
          <CharString index="208">
            -128 -265 vlineto
            -80 -43 -35 -75 hvcurveto
            -191 vlineto
            -75 43 -37 80 80 43 37 75 vhcurveto
            33 callgsubr
          </CharString>
          <CharString index="209">
            -2 callsubr
            166 -101 callgsubr
            -90 134 callsubr
            return
          </CharString>
          <CharString index="210">
            14 callsubr
            -57 130 callsubr
            return
          </CharString>
          <CharString index="211">
            53 318 713 rmoveto
            -150 -107 vlineto
            -82 -64 -48 -94 hvcurveto
            -279 vlineto
            -93 49 -52 95 57 31 17 17 22 vhcurveto
            -31 49 713 vlineto
            -50 -631 rmoveto
            -20 -20 -36 -20 -52 hhcurveto
            -63 -32 32 67 hvcurveto
            280 vlineto
            64 38 32 70 vhcurveto
            95 hlineto
            return
          </CharString>
          <CharString index="212">
            rmoveto
            -37 -105 rlineto
            35 314 callsubr
            -130 hmoveto
            -37 -105 rlineto
            35 329 callgsubr
          </CharString>
          <CharString index="213">
            159 vlineto
            110 49 64 86 hvcurveto
            366 121 callgsubr
            109 -516 300 callsubr
            return
          </CharString>
          <CharString index="214">
            119 callsubr
            389 return
          </CharString>
          <CharString index="215">
            hlineto
            15 33 40 95 33 vvcurveto
            18 -12 9 -15 vhcurveto
            return
          </CharString>
          <CharString index="216">
            -40 284 hlineto
            0 14 -25 -49 vvcurveto
            -86 vlineto
            -45 -10 -39 -81 -1 vhcurveto
            -61 -42 61 hlineto
            81 -1 10 -39 -45 vvcurveto
            -109 vlineto
            -52 -31 -32 -93 -38 -32 8 12 -34 vhcurveto
            -46 vlineto
            -10 33 29 -6 42 hhcurveto
            115 54 45 81 hvcurveto
            endchar
          </CharString>
          <CharString index="217">
            0 -9 -25 -50 vvcurveto
            -53 vlineto
            -45 10 -36 48 -16 vhcurveto
            151 callgsubr
          </CharString>
          <CharString index="218">
            -197 vlineto
            124 callsubr
            return
          </CharString>
          <CharString index="219">
            -75 callsubr
            232 145 callsubr
            -105 vlineto
            -92 callgsubr
            return
          </CharString>
          <CharString index="220">
            -198 263 callsubr
            -156 72 callgsubr
            return
          </CharString>
          <CharString index="221">
            -168 hlineto
            -31 callsubr
            endchar
          </CharString>
          <CharString index="222">
            vvcurveto
            125 callsubr
          </CharString>
          <CharString index="223">
            vlineto
            45 22 30 return
          </CharString>
          <CharString index="224">
            40 24 3 7 29 hvcurveto
            -97 42 238 -42 -99 91 callgsubr
            184 -37 callsubr
            -576 -40 431 -100 -85 76 callsubr
            return
          </CharString>
          <CharString index="225">
            vlineto
            64 callsubr
            -46 10 return
          </CharString>
          <CharString index="226">
            rmoveto
            -138 301 callsubr
            -33 -4 -7 -21 hvcurveto
            131 vlineto
            return
          </CharString>
          <CharString index="227">
            45 452 vlineto
            -73 callsubr
            return
          </CharString>
          <CharString index="228">
            vlineto
            45 25 35 75 return
          </CharString>
          <CharString index="229">
            -2 42 rmoveto
            -73 1 -19 28 45 vvcurveto
            7 302 callgsubr
            141 138 -295 hlineto
            endchar
          </CharString>
          <CharString index="230">
            311 callsubr
            39 vlineto
            45 22 35 75 vhcurveto
            0 vlineto
            1 1 0 1 hhcurveto
            45 32 8 6 20 hvcurveto
            -133 vlineto
            -48 -20 -35 -78 vhcurveto
            -102 442 rmoveto
            -30 callsubr
            130 142 102 40 return
          </CharString>
          <CharString index="231">
            -79 callgsubr
            120 callsubr
            return
          </CharString>
          <CharString index="232">
            -141 63 callgsubr
          </CharString>
          <CharString index="233">
            -95 -45 -40 -75 hvcurveto
            return
          </CharString>
          <CharString index="234">
            -263 -267 rlineto
            61 hlineto
            110 113 rlineto
            68 70 24 31 0 vvcurveto
            return
          </CharString>
          <CharString index="235">
            vlineto
            -274 -280 rlineto
            62 hlineto
            146 149 return
          </CharString>
          <CharString index="236">
            -5 45 hhcurveto
            95 48 48 78 hvcurveto
            return
          </CharString>
          <CharString index="237">
            vlineto
            -87 -45 -15 -87 vhcurveto
            return
          </CharString>
          <CharString index="238">
            rmoveto
            -44 callgsubr
            125 vlineto
            190 -144 rlineto
            -46 vlineto
            -4 -9 -31 -10 -49 hhcurveto
            321 16 callgsubr
          </CharString>
          <CharString index="239">
            -44 callgsubr
            352 return
          </CharString>
          <CharString index="240">
            hhcurveto
            -120 -43 37 103 hvcurveto
            return
          </CharString>
          <CharString index="241">
            -47 -42 -75 hvcurveto
            return
          </CharString>
          <CharString index="242">
            -98 callgsubr
            -61 -28 -14 -86 vhcurveto
            -20 return
          </CharString>
          <CharString index="243">
            hlineto
            -95 callgsubr
            -45 -67 callsubr
            return
          </CharString>
          <CharString index="244">
            -56 10 666 rmoveto
            -45 132 -621 50 621 132 45 vlineto
            return
          </CharString>
          <CharString index="245">
            227 callsubr
            hlineto
            126 callgsubr
            return
          </CharString>
          <CharString index="246">
            -40 77 -363 vlineto
            -75 47 -51 100 return
          </CharString>
          <CharString index="247">
            0 333 666 rmoveto
            -76 -204 -20 -56 -21 -56 -20 -56 rlinecurve
            -21 56 -20 57 -21 56 -77 203 rcurveline
            -52 hlineto
            165 -436 rlineto
            -230 50 230 vlineto
            165 436 rlineto
            return
          </CharString>
          <CharString index="248">
            rmoveto
            -39 210 39 vlineto
            endchar
          </CharString>
          <CharString index="249">
            -78 -43 -48 -95 -48 -32 9 8 -21 vhcurveto
            43 vlineto
            -7 20 33 -11 48 hhcurveto
            73 20 35 49 hvcurveto
            return
          </CharString>
          <CharString index="250">
            rmoveto
            -104 callgsubr
            return
          </CharString>
          <CharString index="251">
            49 -19 35 -73 -40 -28 -8 -10 -25 vhcurveto
            43 vlineto
            9 21 26 8 46 hhcurveto
            95 42 -48 -78 hvcurveto
            return
          </CharString>
          <CharString index="252">
            226 callsubr
            18 hlineto
            58 23 -19 -50 hvcurveto
            return
          </CharString>
          <CharString index="253">
            rmoveto
            75 -45 41 -95 vhcurveto
            -17 hlineto
            -75 -20 29 45 hvcurveto
            return
          </CharString>
          <CharString index="254">
            vlineto
            258 callgsubr
            -43 222 callgsubr
            return
          </CharString>
          <CharString index="255">
            -32 hhcurveto
            -52 -40 122 callgsubr
            return
          </CharString>
          <CharString index="256">
            38 vlineto
            45 21 30 76 vhcurveto
            return
          </CharString>
          <CharString index="257">
            -99 -83 vlineto
            12 callgsubr
            -10 43 42 -4 49 hhcurveto
            return
          </CharString>
          <CharString index="258">
            -73 -18 29 45 hvcurveto
            7 61 callgsubr
            141 141 return
          </CharString>
          <CharString index="259">
            8 -27 -31 7 -42 hhcurveto
            return
          </CharString>
          <CharString index="260">
            -41 vlineto
            -75 45 -41 95 vhcurveto
            97 callgsubr
          </CharString>
          <CharString index="261">
            -139 rlineto
            -40 hlineto
            -32 callsubr
            return
          </CharString>
          <CharString index="262">
            rmoveto
            -99 callgsubr
            return
          </CharString>
          <CharString index="263">
            rmoveto
            -74 -22 34 45 hvcurveto
            134 vlineto
            167 -195 rlineto
            -13 -17 -23 -5 -25 hhcurveto
            endchar
          </CharString>
          <CharString index="264">
            -76 callgsubr
            248 callsubr
            28 35 78 32 return
          </CharString>
          <CharString index="265">
            65 143 rmoveto
            -86 45 134 callgsubr
            45 67 86 vhcurveto
            return
          </CharString>
          <CharString index="266">
            rmoveto
            -65 -25 25 45 hvcurveto
            42 116 callsubr
            75 return
          </CharString>
          <CharString index="267">
            491 rmoveto
            98 callgsubr
            return
          </CharString>
          <CharString index="268">
            -40 113 hlineto
            -83 callgsubr
            return
          </CharString>
          <CharString index="269">
            136 vlineto
            45 15 30 70 return
          </CharString>
          <CharString index="270">
            vmoveto
            -104 callsubr
            return
          </CharString>
          <CharString index="271">
            vlineto
            32 callsubr
          </CharString>
          <CharString index="272">
            426 204 callgsubr
            return
          </CharString>
          <CharString index="273">
            -100 -70 76 callsubr
            return
          </CharString>
          <CharString index="274">
            -62 -46 -35 -67 hvcurveto
            -9 vlineto
            -38 9 -31 41 -13 vhcurveto
            -41 -11 -14 -33 -37 vvcurveto
            -9 vlineto
            -88 54 -38 107 96 62 32 117 3 vhcurveto
            4 3 0 4 hhcurveto
            return
          </CharString>
          <CharString index="275">
            122 -183 -122 -183 rlineto
            53 hlineto
            121 183 -121 183 rlineto
            return
          </CharString>
          <CharString index="276">
            rmoveto
            216 vlineto
            223 -261 rlineto
            -20 -17 -39 -19 321 callsubr
            return
          </CharString>
          <CharString index="277">
            70 15 -35 -45 vhcurveto
            return
          </CharString>
          <CharString index="278">
            -483 vlineto
            -11 -33 -25 -4 256 callgsubr
            return
          </CharString>
          <CharString index="279">
            -21 callsubr
            7 hlineto
            111 25 62 59 hvcurveto
            return
          </CharString>
          <CharString index="280">
            181 vlineto
            45 return
          </CharString>
          <CharString index="281">
            29 337 666 rmoveto
            -145 -336 151 -330 rlineto
            56 hlineto
            -152 332 145 334 rlineto
            -317 hmoveto
            -666 50 666 vlineto
            return
          </CharString>
          <CharString index="282">
            0 -9 -25 -50 vvcurveto
            -73 -13 callgsubr
            return
          </CharString>
          <CharString index="283">
            196 634 -196 hlineto
            236 -185 rmoveto
            196 185 -196 hlineto
            return
          </CharString>
          <CharString index="284">
            -40 290 166 callsubr
            return
          </CharString>
          <CharString index="285">
            -82 hlineto
            6 callsubr
            return
          </CharString>
          <CharString index="286">
            129 callgsubr
            endchar
          </CharString>
          <CharString index="287">
            128 callsubr
            rlineto
            return
          </CharString>
          <CharString index="288">
            -101 196 callsubr
            return
          </CharString>
          <CharString index="289">
            hlineto
            191 callsubr
            13 vlineto
            45 17 28 75 vhcurveto
            return
          </CharString>
          <CharString index="290">
            -40 77 -352 vlineto
            112 callgsubr
            return
          </CharString>
          <CharString index="291">
            130 callgsubr
            79 40 return
          </CharString>
          <CharString index="292">
            hlineto
            79 30 -41 -64 hvcurveto
            return
          </CharString>
          <CharString index="293">
            -40 156 -289 return
          </CharString>
          <CharString index="294">
            -82 hlineto
            -42 -30 -8 -15 -21 hvcurveto
            46 -13 -35 27 -66 hhcurveto
            -47 -30 122 callgsubr
            252 callsubr
            return
          </CharString>
          <CharString index="295">
            19 -20 -30 11 -42 hhcurveto
            -47 -30 229 callsubr
            return
          </CharString>
          <CharString index="296">
            236 callgsubr
            126 callgsubr
            return
          </CharString>
          <CharString index="297">
            -40 -15 callgsubr
            return
          </CharString>
          <CharString index="298">
            -75 -20 27 45 hvcurveto
            return
          </CharString>
          <CharString index="299">
            41 28 -21 -53 vhcurveto
            -55 vlineto
            -48 -20 -37 -80 -80 -20 37 48 vhcurveto
            265 -21 callsubr
            115 142 105 40 return
          </CharString>
          <CharString index="300">
            vvcurveto
            111 callsubr
            return
          </CharString>
          <CharString index="301">
            -36 callgsubr
            41 vmoveto
            -57 callsubr
            endchar
          </CharString>
          <CharString index="302">
            -190 75 713 rmoveto
            -713 50 713 vlineto
            return
          </CharString>
          <CharString index="303">
            -62 callsubr
            171 return
          </CharString>
          <CharString index="304">
            -315 -666 rlineto
            42 hlineto
            315 666 rlineto
            return
          </CharString>
          <CharString index="305">
            -8 callgsubr
            -4 return
          </CharString>
          <CharString index="306">
            15 -19 -31 13 -42 hhcurveto
            -110 -45 -67 -86 hvcurveto
            -142 vlineto
            -86 45 134 callgsubr
            45 67 86 vhcurveto
            163 vlineto
            return
          </CharString>
          <CharString index="307">
            -34 callgsubr
            94 172 callsubr
            return
          </CharString>
          <CharString index="308">
            70 callgsubr
            -51 257 callgsubr
            return
          </CharString>
          <CharString index="309">
            rmoveto
            29 callgsubr
            -425 177 callsubr
            -258 vlineto
            return
          </CharString>
          <CharString index="310">
            -99 -83 284 callsubr
            return
          </CharString>
          <CharString index="311">
            148 callgsubr
            -440 291 callgsubr
            return
          </CharString>
          <CharString index="312">
            vlineto
            222 callsubr
            147 return
          </CharString>
          <CharString index="313">
            0 13 -55 callgsubr
            -115 vlineto
            -45 -18 -25 -60 -60 -18 26 44 vhcurveto
            120 vlineto
            45 18 25 60 vhcurveto
            endchar
          </CharString>
          <CharString index="314">
            -51 60 callsubr
            323 callsubr
            621 vlineto
            return
          </CharString>
          <CharString index="315">
            666 rmoveto
            -255 -666 rlineto
            42 hlineto
            255 666 rlineto
            return
          </CharString>
          <CharString index="316">
            hhcurveto
            78 callsubr
            return
          </CharString>
          <CharString index="317">
            vhcurveto
            92 callsubr
            return
          </CharString>
          <CharString index="318">
            vlineto
            0 -10 -25 -50 vvcurveto
            return
          </CharString>
          <CharString index="319">
            36 -11 25 -22 14 vhcurveto
            return
          </CharString>
          <CharString index="320">
            vlineto
            -102 77 -40 100 return
          </CharString>
          <CharString index="321">
            110 110 return
          </CharString>
          <CharString index="322">
            rmoveto
            306 -123 -306 -122 rlineto
            -45 vlineto
            341 136 rlineto
            62 vlineto
            -341 137 rlineto
            endchar
          </CharString>
          <CharString index="323">
            -110 -110 return
          </CharString>
          <CharString index="324">
            -37 callsubr
            -437 -40 292 -100 -85 76 callsubr
            return
          </CharString>
          <CharString index="325">
            -124 123 666 rmoveto
            -113 -81 rlineto
            -58 vlineto
            131 95 rlineto
            -622 50 666 vlineto
            endchar
          </CharString>
          <CharString index="326">
            387 rmoveto
            29 callgsubr
            return
          </CharString>
          <CharString index="327">
            170 310 callgsubr
            vlineto
            endchar
          </CharString>
          <CharString index="328">
            106 53 43 78 hvcurveto
            return
          </CharString>
          <CharString index="329">
            -30 callsubr
            130 142 102 40 -447 -40 300 -100 -85 76 callsubr
            return
          </CharString>
          <CharString index="330">
            rmoveto
            -55 -30 -15 -75 -75 -30 15 55 vhcurveto
            -42 -1 hlineto
            -85 52 -24 95 95 52 23 86 vhcurveto
            1 vlineto
            return
          </CharString>
          <CharString index="331">
            108 callsubr
            endchar
          </CharString>
          <CharString index="332">
            vlineto
            -75 45 -47 95 95 45 47 75 vhcurveto
            return
          </CharString>
          <CharString index="333">
            121 callsubr
            vhcurveto
            return
          </CharString>
          <CharString index="334">
            -128 -265 return
          </CharString>
          <CharString index="335">
            rmoveto
            -64 -26 -44 -79 -79 -26 44 64 vhcurveto
            142 vlineto
            64 26 44 79 45 39 -18 -22 21 vhcurveto
            return
          </CharString>
          <CharString index="336">
            122 callgsubr
            176 callgsubr
            return
          </CharString>
          <CharString index="337">
            238 263 rmoveto
            -45 -9 -33 -70 -70 -9 32 44 vhcurveto
            83 vlineto
            45 11 27 70 vhcurveto
            77 hlineto
            return
          </CharString>
          <CharString index="338">
            rmoveto
            -69 -38 -36 -69 vhcurveto
            -96 444 303 callsubr
            endchar
          </CharString>
          <CharString index="339">
            vlineto
            43 -14 22 -18 10 vhcurveto
            159 -351 hlineto
            -86 -30 -40 -102 -100 -29 40 86 vhcurveto
            endchar
          </CharString>
          <CharString index="340">
            -48 -12 -16 -39 -44 vvcurveto
            -58 213 callsubr
            51 return
          </CharString>
          <CharString index="341">
            189 callsubr
            -191 vlineto
            return
          </CharString>
          <CharString index="342">
            hhcurveto
            50 44 7 5 24 hvcurveto
            -97 return
          </CharString>
          <CharString index="343">
            -95 -50 -47 -75 hvcurveto
            return
          </CharString>
          <CharString index="344">
            rmoveto
            -443 -40 443 hlineto
            1 -125 307 callgsubr
            return
          </CharString>
          <CharString index="345">
            vlineto
            -42 -4 -32 -64 -18 -16 4 0 vhcurveto
            -40 vlineto
            0 13 -5 22 86 25 45 70 vhcurveto
            return
          </CharString>
          <CharString index="346">
            40 215 rmoveto
            -107 callgsubr
            return
          </CharString>
          <CharString index="347">
            97 563 rmoveto
            -57 -45 57 -518 50 518 return
          </CharString>
          <CharString index="348">
            vlineto
            -25 callgsubr
            return
          </CharString>
          <CharString index="349">
            43 16 282 callsubr
            return
          </CharString>
          <CharString index="350">
            -178 178 callsubr
            return
          </CharString>
          <CharString index="351">
            hhcurveto
            -7 callgsubr
            return
          </CharString>
          <CharString index="352">
            248 callgsubr
            46 return
          </CharString>
          <CharString index="353">
            38 305 hmoveto
            43 -99 callgsubr
            -468 -40 77 -368 hlineto
            -75 54 -46 95 return
          </CharString>
          <CharString index="354">
            44 69 rmoveto
            -40 -193 rlineto
            32 hlineto
            19 42 42 94 31 vvcurveto
            18 -13 8 -15 vhcurveto
            return
          </CharString>
          <CharString index="355">
            258 vlineto
            45 return
          </CharString>
          <CharString index="356">
            175 -61 callgsubr
            return
          </CharString>
          <CharString index="357">
            -125 -286 -40 83 vlineto
            -83 callgsubr
            -197 vlineto
            -49 -25 -35 -73 return
          </CharString>
          <CharString index="358">
            -429 -61 callgsubr
            return
          </CharString>
          <CharString index="359">
            -33 callsubr
            8 callgsubr
            return
          </CharString>
          <CharString index="360">
            185 callgsubr
            -22 -17 -67 return
          </CharString>
          <CharString index="361">
            -5 -17 -48 -10 320 callsubr
            return
          </CharString>
          <CharString index="362">
            vlineto
            -6 -23 -27 -4 -40 hhcurveto
            return
          </CharString>
          <CharString index="363">
            110 49 67 86 return
          </CharString>
          <CharString index="364">
            -26 -27 5 5 -22 return
          </CharString>
          <CharString index="365">
            491 rmoveto
            4 -9 return
          </CharString>
          <CharString index="366">
            -84 -50 25 77 hvcurveto
            return
          </CharString>
          <CharString index="367">
            rmoveto
            94 31 59 75 75 -31 60 -94 -94 -30 -60 -75 -75 30 -59 94 hvcurveto
            return
          </CharString>
          <CharString index="368">
            315 callsubr
            -146 -104 callsubr
            return
          </CharString>
          <CharString index="369">
            rmoveto
            -40 341 40 vlineto
            return
          </CharString>
          <CharString index="370">
            rmoveto
            0 13 -55 callgsubr
            return
          </CharString>
          <CharString index="371">
            364 rmoveto
            49 callgsubr
            return
          </CharString>
          <CharString index="372">
            397 279 callgsubr
            return
          </CharString>
          <CharString index="373">
            -24 -9 -14 -19 -48 callsubr
            24 9 14 19 19 -9 14 -24 hvcurveto
            return
          </CharString>
          <CharString index="374">
            vvcurveto
            -13 -12 callsubr
            endchar
          </CharString>
          <CharString index="375">
            hhcurveto
            -95 -51 -50 -74 hvcurveto
            -182 vlineto
            -79 return
          </CharString>
          <CharString index="376">
            203 -283 hlineto
            -203 192 rlineto
            return
          </CharString>
          <CharString index="377">
            vlineto
            75 -38 42 -86 return
          </CharString>
          <CharString index="378">
            -70 -15 30 45 return
          </CharString>
          <CharString index="379">
            -197 vlineto
            -75 return
          </CharString>
          <CharString index="380">
            88 callgsubr
            9 -18 -31 9 hvcurveto
            42 -139 rlineto
            return
          </CharString>
          <CharString index="381">
            50 158 callsubr
            return
          </CharString>
          <CharString index="382">
            vlineto
            75 -40 42 return
          </CharString>
          <CharString index="383">
            80 604 rmoveto
            -77 callsubr
            -245 -40 vlineto
            return
          </CharString>
          <CharString index="384">
            -100 -70 312 callgsubr
            -258 vlineto
            248 callgsubr
            return
          </CharString>
          <CharString index="385">
            -45 132 callgsubr
            return
          </CharString>
          <CharString index="386">
            -26 -18 -18 -26 -26 18 -18 26 hvcurveto
            return
          </CharString>
          <CharString index="387">
            -258 -20 callgsubr
            return
          </CharString>
          <CharString index="388">
            -40 77 -352 hlineto
            112 callgsubr
            return
          </CharString>
          <CharString index="389">
            53 vhcurveto
            3 43 -6 hlineto
            -76 return
          </CharString>
          <CharString index="390">
            hlineto
            260 callgsubr
            return
          </CharString>
          <CharString index="391">
            hlineto
            126 callsubr
            return
          </CharString>
          <CharString index="392">
            hhcurveto
            221 callgsubr
            return
          </CharString>
          <CharString index="393">
            -73 -24 29 52 hvcurveto
            return
          </CharString>
          <CharString index="394">
            132 52 37 103 return
          </CharString>
          <CharString index="395">
            11 -31 vhcurveto
            -48 vlineto
            return
          </CharString>
          <CharString index="396">
            491 rmoveto
            76 callgsubr
            return
          </CharString>
          <CharString index="397">
            628 175 -90 callsubr
            return
          </CharString>
          <CharString index="398">
            rmoveto
            -76 callgsubr
            return
          </CharString>
          <CharString index="399">
            vlineto
            -71 38 -57 111 vhcurveto
            42 vlineto
            -90 -14 44 42 hvcurveto
            return
          </CharString>
          <CharString index="400">
            43 vlineto
            317 callgsubr
            return
          </CharString>
          <CharString index="401">
            88 58 57 93 hvcurveto
            282 vlineto
            85 -53 48 -83 -46 return
          </CharString>
          <CharString index="402">
            45 58 vlineto
            269 callgsubr
            return
          </CharString>
          <CharString index="403">
            vlineto
            -55 319 callsubr
            return
          </CharString>
          <CharString index="404">
            41 11 13 50 45 vvcurveto
            87 vlineto
            53 -11 20 0 vhcurveto
            return
          </CharString>
          <CharString index="405">
            -184 40 343 rmoveto
            -40 131 40 vlineto
            endchar
          </CharString>
          <CharString index="406">
            126 callsubr
            -7 vlineto
            -75 return
          </CharString>
          <CharString index="407">
            285 callgsubr
            -109 return
          </CharString>
          <CharString index="408">
            vlineto
            12 -19 -27 6 -36 hhcurveto
            -28 return
          </CharString>
          <CharString index="409">
            60 37 6 10 24 return
          </CharString>
          <CharString index="410">
            hlineto
            18 38 37 12 42 hhcurveto
            53 33 -27 -60 hvcurveto
            return
          </CharString>
          <CharString index="411">
            28 hlineto
            55 18 -18 -39 33 hvcurveto
            93 -113 rlineto
            return
          </CharString>
          <CharString index="412">
            vlineto
            -190 145 rlineto
            42 2 21 28 72 hhcurveto
            return
          </CharString>
          <CharString index="413">
            vlineto
            317 callsubr
            return
          </CharString>
          <CharString index="414">
            rmoveto
            -62 callgsubr
            return
          </CharString>
          <CharString index="415">
            299 callsubr
            44 -41 95 vhcurveto
            return
          </CharString>
          <CharString index="416">
            vlineto
            -208 219 rlineto
            return
          </CharString>
          <CharString index="417">
            89 40 -467 -40 vlineto
            return
          </CharString>
          <CharString index="418">
            rmoveto
            -78 -21 35 48 hvcurveto
            return
          </CharString>
          <CharString index="419">
            323 callgsubr
            38 return
          </CharString>
          <CharString index="420">
            -2 -4 30 vhcurveto
            return
          </CharString>
          <CharString index="421">
            hlineto
            55 105 rlineto
            return
          </CharString>
          <CharString index="422">
            vlineto
            112 callgsubr
            40 29 6 9 23 vhcurveto
            return
          </CharString>
          <CharString index="423">
            152 callsubr
            236 callsubr
            return
          </CharString>
          <CharString index="424">
            4 3 0 4 hhcurveto
            40 24 3 7 29 hvcurveto
            return
          </CharString>
          <CharString index="425">
            -4 -44 -24 -5 -54 hhcurveto
            -90 -51 25 77 hvcurveto
            return
          </CharString>
          <CharString index="426">
            -38 -14 -26 -22 hvcurveto
            25 -19 -33 15 -55 hhcurveto
            return
          </CharString>
          <CharString index="427">
            -50 hhcurveto
            259 callsubr
            return
          </CharString>
          <CharString index="428">
            -65 285 callsubr
            return
          </CharString>
          <CharString index="429">
            hlineto
            70 8 -27 -45 hvcurveto
            -30 return
          </CharString>
          <CharString index="430">
            259 45 -209 return
          </CharString>
          <CharString index="431">
            100 45 49 78 return
          </CharString>
          <CharString index="432">
            -63 36 -43 63 -14 vhcurveto
            -83 -30 -31 -89 return
          </CharString>
          <CharString index="433">
            -27 -18 -14 -32 -45 vvcurveto
            -77 41 -32 75 return
          </CharString>
          <CharString index="434">
            rmoveto
            84 callsubr
            return
          </CharString>
          <CharString index="435">
            169 44 rlineto
            40 vlineto
            -169 -44 rlineto
            return
          </CharString>
          <CharString index="436">
            -4 -7 -21 hvcurveto
            return
          </CharString>
          <CharString index="437">
            -90 -40 -42 -75 return
          </CharString>
        <CharString name=".notdef">
          360 180 hmoveto
          390 701 -390 hlineto
          54 -50 rmoveto
          282 -601 -282 hlineto
          endchar
        </CharString>
        <CharString name="A">
          34 352 hmoveto
          52 -26 callgsubr
          -10 45 179 callsubr
        </CharString>
        <CharString name="AE">
          252 354 240 rmoveto
          -178 hlineto
          178 385 rlineto
          -625 vmoveto
          276 45 -226 268 197 45 -197 263 226 45 -307 hlineto
          -313 -666 rlineto
          55 hlineto
          90 195 rlineto
          199 hlineto
          endchar
        </CharString>
        <CharString name="Aacute">
          34 352 hmoveto
          52 -26 callgsubr
          -75 618 rmoveto
          -37 -105 rlineto
          37 314 callsubr
          10 -573 179 callsubr
        </CharString>
        <CharString name="Abreve">
          34 352 hmoveto
          52 -26 callgsubr
          -10 45 129 callgsubr
          64 204 38 callgsubr
          endchar
        </CharString>
        <CharString name="Acircumflex">
          34 352 hmoveto
          52 -26 callgsubr
          -10 45 129 callgsubr
          36 99 -10 callgsubr
        </CharString>
        <CharString name="Adieresis">
          34 149 726 rmoveto
          -107 callgsubr
          125 hmoveto
          -107 callgsubr
          78 -726 rmoveto
          52 -26 callgsubr
          -10 45 179 callsubr
        </CharString>
        <CharString name="Agrave">
          34 352 hmoveto
          52 -26 callgsubr
          -175 618 rmoveto
          55 -105 rlineto
          37 hlineto
          -37 105 rlineto
          110 -573 179 callsubr
        </CharString>
        <CharString name="Amacron">
          34 352 hmoveto
          52 -26 callgsubr
          -202 585 rmoveto
          -39 210 39 vlineto
          -18 -540 179 callsubr
        </CharString>
        <CharString name="Aogonek">
          34 370 hmoveto
          1 callsubr
          2 -26 callgsubr
          45 -195 rlineto
          -55 240 179 callsubr
        </CharString>
        <CharString name="Aring">
          34 352 hmoveto
          52 -26 callgsubr
          -95 528 rmoveto
          -23 -14 15 23 22 14 15 23 23 14 -15 -22 -23 -14 -15 -23 hvcurveto
          -33 vmoveto
          47 25 32 39 39 -25 31 -47 -46 -26 -31 -39 -39 26 -32 46 hvcurveto
          85 -450 179 callsubr
        </CharString>
        <CharString name="Atilde">
          34 352 hmoveto
          52 -26 callgsubr
          -10 45 129 callgsubr
          81 194 -50 callgsubr
        </CharString>
        <CharString name="B">
          71 237 312 rmoveto
          79 30 -41 -64 hvcurveto
          -57 vlineto
          271 callgsubr
          -112 267 hlineto
          106 309 rmoveto
          79 30 -41 -64 hvcurveto
          -54 vlineto
          271 callgsubr
          -106 264 hlineto
          -50 -621 rmoveto
          162 hlineto
          110 49 64 86 hvcurveto
          57 vlineto
          63 -26 46 -55 20 vhcurveto
          51 21 24 44 61 vvcurveto
          54 121 callgsubr
          -156 hlineto
          endchar
        </CharString>
        <CharString name="C">
          -1 65 130 rmoveto
          -84 52 -51 117 44 43 7 9 28 vhcurveto
          20 callsubr
          endchar
        </CharString>
        <CharString name="CR">
          -390 endchar
        </CharString>
        <CharString name="Cacute">
          -1 65 130 rmoveto
          -84 52 -51 117 44 43 7 9 28 vhcurveto
          20 callsubr
          173 277 -23 callsubr
        </CharString>
        <CharString name="Ccaron">
          -1 65 130 rmoveto
          -84 52 -51 117 44 43 7 9 28 vhcurveto
          20 callsubr
          192 277 -43 callsubr
        </CharString>
        <CharString name="Ccedilla">
          -1 65 130 rmoveto
          -76 43 -50 96 -8 vhcurveto
          -13 -63 87 callgsubr
          8 35 rlineto
          43 43 7 9 28 hvcurveto
          20 callsubr
          endchar
        </CharString>
        <CharString name="D">
          68 60 callsubr
          106 callsubr
          576 109 185 callsubr
          endchar
        </CharString>
        <CharString name="Dcaron">
          68 343 150 300 callsubr
          576 109 185 callsubr
          -268 150 rmoveto
          -666 159 vlineto
          110 49 64 86 hvcurveto
          366 121 callgsubr
          24 147 -43 callsubr
        </CharString>
        <CharString name="Dcroat">
          68 180 callgsubr
          -310 -60 -45 60 -311 106 callsubr
          266 113 45 -113 265 109 185 callsubr
          endchar
        </CharString>
        <CharString name="E">
          -16 callsubr
          endchar
        </CharString>
        <CharString name="Eacute">
          -16 callsubr
          -117 147 -23 callsubr
        </CharString>
        <CharString name="Ecaron">
          -16 callsubr
          -100 147 -43 callsubr
        </CharString>
        <CharString name="Ecircumflex">
          -16 callsubr
          -108 42 -10 callgsubr
        </CharString>
        <CharString name="Edieresis">
          -16 callsubr
          -198 60 rmoveto
          -107 callgsubr
          125 hmoveto
          -107 callgsubr
          endchar
        </CharString>
        <CharString name="Edotaccent">
          -16 callsubr
          -132 89 -91 callsubr
        </CharString>
        <CharString name="Egrave">
          -16 callsubr
          -211 147 87 callsubr
        </CharString>
        <CharString name="Emacron">
          -16 callsubr
          -241 114 141 callsubr
        </CharString>
        <CharString name="Eogonek">
          179 callgsubr
          243 vlineto
          1 callsubr
          1 45 -226 268 197 45 -197 263 226 45 hlineto
          endchar
        </CharString>
        <CharString name="Eth">
          68 180 callgsubr
          -317 -76 -45 76 -304 106 callsubr
          259 122 45 -122 272 109 185 callsubr
          endchar
        </CharString>
        <CharString name="Euro">
          -1 65 130 rmoveto
          -84 52 -51 117 44 43 7 9 28 vhcurveto
          47 vlineto
          -9 -30 -43 -8 -42 hhcurveto
          -93 -26 34 55 hvcurveto
          123 169 40 -169 92 169 40 -169 111 vlineto
          55 26 34 93 42 41 -8 -9 30 vhcurveto
          47 vlineto
          8 -28 -40 8 -45 hhcurveto
          -117 -52 -51 -84 hvcurveto
          -111 -52 -40 52 -92 -52 -40 52 vlineto
          endchar
        </CharString>
        <CharString name="F">
          -28 60 callsubr
          50 303 208 45 -208 273 217 45 vlineto
          endchar
        </CharString>
        <CharString name="G">
          18 callgsubr
          endchar
        </CharString>
        <CharString name="Gbreve">
          18 callgsubr
          222 283 38 callgsubr
          endchar
        </CharString>
        <CharString name="H">
          95 359 666 rmoveto
          -317 -234 317 -50 -666 50 304 234 -304 51 666 vlineto
          endchar
        </CharString>
        <CharString name="I">
          -190 60 callsubr
          50 666 vlineto
          endchar
        </CharString>
        <CharString name="Iacute">
          -190 60 callsubr
          50 666 vlineto
          -9 147 -23 callsubr
        </CharString>
        <CharString name="Icircumflex">
          -190 60 callsubr
          50 666 vlineto
          16 42 -10 callgsubr
        </CharString>
        <CharString name="Idieresis">
          -190 60 callsubr
          50 666 vlineto
          -89 60 rmoveto
          -107 callgsubr
          125 hmoveto
          -107 callgsubr
          endchar
        </CharString>
        <CharString name="Idotaccent">
          -190 60 callsubr
          50 666 vlineto
          -27 89 -91 callsubr
        </CharString>
        <CharString name="Igrave">
          -190 60 callsubr
          50 666 vlineto
          -96 147 87 callsubr
        </CharString>
        <CharString name="Imacron">
          -190 60 callsubr
          50 666 vlineto
          -129 114 141 callsubr
        </CharString>
        <CharString name="Iogonek">
          -190 60 callsubr
          18 vlineto
          1 callsubr
          666 vlineto
          endchar
        </CharString>
        <CharString name="J">
          -190 180 callgsubr
          -472 vlineto
          -101 -13 -63 -21 -73 vhcurveto
          -30 -106 rlineto
          50 hlineto
          31 105 rlineto
          15 53 18 71 115 vvcurveto
          471 vlineto
          endchar
        </CharString>
        <CharString name="K">
          174 callsubr
          endchar
        </CharString>
        <CharString name="L">
          207 callsubr
          endchar
        </CharString>
        <CharString name="Lacute">
          207 callsubr
          -9 147 -23 callsubr
        </CharString>
        <CharString name="Lcaron">
          -51 194 711 rmoveto
          -27 -113 rlineto
          31 hlineto
          13 20 31 50 19 vvcurveto
          17 -12 7 -13 vhcurveto
          -142 -45 rmoveto
          -666 323 callsubr
          621 vlineto
          endchar
        </CharString>
        <CharString name="Lslash">
          -51 180 callgsubr
          -337 vlineto
          -55 -31 rlineto
          -45 vlineto
          55 31 rlineto
          -284 323 callsubr
          266 vlineto
          100 56 rlineto
          45 vlineto
          -100 -56 rlineto
          310 vlineto
          endchar
        </CharString>
        <CharString name="M">
          211 459 666 rmoveto
          -159 -439 -159 439 rlineto
          -66 -666 47 385 hlineto
          103 -4 94 0 vhcurveto
          150 -402 rlineto
          64 hlineto
          149 402 rlineto
          0 -3 -81 -117 vvcurveto
          -384 48 666 vlineto
          endchar
        </CharString>
        <CharString name="N">
          -41 callgsubr
          endchar
        </CharString>
        <CharString name="NULL">
          -390 endchar
        </CharString>
        <CharString name="Nacute">
          -41 callgsubr
          -147 147 -23 callsubr
        </CharString>
        <CharString name="Ncaron">
          -41 callgsubr
          -132 147 -43 callsubr
        </CharString>
        <CharString name="Ntilde">
          -41 callgsubr
          -87 137 -50 callgsubr
        </CharString>
        <CharString name="O">
          -68 callgsubr
          endchar
        </CharString>
        <CharString name="OE">
          269 244 45 rmoveto
          -79 -30 41 64 hvcurveto
          366 vlineto
          64 30 41 79 vhcurveto
          109 -576 hlineto
          -109 -45 rmoveto
          385 45 -226 268 197 45 -197 263 226 45 -385 hlineto
          -110 -49 -64 -86 hvcurveto
          -366 vlineto
          -86 49 -64 110 vhcurveto
          endchar
        </CharString>
        <CharString name="Oacute">
          -68 callgsubr
          -92 290 -23 callsubr
        </CharString>
        <CharString name="Ocircumflex">
          58 333 143 rmoveto
          -64 -30 -44 -79 -79 -30 44 64 vhcurveto
          380 vlineto
          64 30 44 79 79 30 -44 -64 vhcurveto
          -268 -380 rmoveto
          104 callgsubr
          380 vlineto
          86 -49 67 216 callsubr
          -49 -67 -86 vhcurveto
          193 185 -10 callgsubr
        </CharString>
        <CharString name="Odieresis">
          -68 callgsubr
          -172 203 rmoveto
          -107 callgsubr
          125 hmoveto
          -107 callgsubr
          endchar
        </CharString>
        <CharString name="Ograve">
          -68 callgsubr
          -190 290 87 callsubr
        </CharString>
        <CharString name="Ohungarumlaut">
          -68 callgsubr
          -52 290 105 callsubr
        </CharString>
        <CharString name="Omacron">
          -68 callgsubr
          -213 257 141 callsubr
        </CharString>
        <CharString name="Oslash">
          58 65 143 rmoveto
          -33 7 -30 16 -25 vhcurveto
          -23 -55 rlineto
          44 hlineto
          9 21 rlineto
          -19 25 35 -12 46 hhcurveto
          256 callsubr
          hvcurveto
          380 vlineto
          33 -7 30 -16 25 vhcurveto
          23 55 rlineto
          -44 hlineto
          -9 -21 rlineto
          19 -25 -35 12 -46 hhcurveto
          -110 -49 -67 -86 hvcurveto
          50 -380 rmoveto
          380 vlineto
          64 30 44 79 42 28 -12 -21 17 vhcurveto
          -195 -474 rlineto
          -1 6 0 6 7 vvcurveto
          109 -108 rmoveto
          -42 -28 12 21 -17 hvcurveto
          195 474 rlineto
          1 -6 0 -6 -7 vvcurveto
          -380 vlineto
          -64 -30 -44 -79 vhcurveto
          endchar
        </CharString>
        <CharString name="Otilde">
          -68 callgsubr
          -33 280 -50 callgsubr
        </CharString>
        <CharString name="P">
          41 60 callsubr
          50 239 97 vlineto
          110 49 64 86 hvcurveto
          127 121 callgsubr
          109 -277 285 callgsubr
          -97 337 97 185 callsubr
          endchar
        </CharString>
        <CharString name="Q">
          58 333 143 rmoveto
          -64 -30 -44 -79 -79 -30 44 64 vhcurveto
          380 vlineto
          64 30 44 79 79 30 -44 -64 vhcurveto
          -268 -380 rmoveto
          245 callgsubr
          18 17 2 3 15 vhcurveto
          88 -99 rlineto
          65 hlineto
          -106 119 rlineto
          42 27 20 47 54 vvcurveto
          380 vlineto
          86 -49 67 216 callsubr
          -49 -67 -86 vhcurveto
          endchar
        </CharString>
        <CharString name="R">
          60 -23 callgsubr
          endchar
        </CharString>
        <CharString name="Racute">
          60 60 callsubr
          50 275 97 vlineto
          8 8 0 1 8 hvcurveto
          99 -276 rlineto
          55 hlineto
          -105 287 rlineto
          59 22 27 52 64 vvcurveto
          91 121 callgsubr
          24 147 rmoveto
          -37 -105 rlineto
          37 314 callsubr
          30 -388 rmoveto
          -64 -30 -39 -79 vhcurveto
          -97 299 97 185 callsubr
          endchar
        </CharString>
        <CharString name="Rcaron">
          60 -23 callgsubr
          -73 297 -43 callsubr
        </CharString>
        <CharString name="S">
          -74 callgsubr
          endchar
        </CharString>
        <CharString name="Sacute">
          -74 callgsubr
          175 276 -23 callsubr
        </CharString>
        <CharString name="Scaron">
          -74 callgsubr
          200 276 -43 callsubr
        </CharString>
        <CharString name="T">
          137 callsubr
          endchar
        </CharString>
        <CharString name="Tcaron">
          137 callsubr
          -123 147 -43 callsubr
        </CharString>
        <CharString name="Thorn">
          33 232 495 rmoveto
          79 30 -41 -64 hvcurveto
          -114 vlineto
          -64 -30 -39 -79 vhcurveto
          -97 322 hlineto
          -50 171 rmoveto
          -666 50 126 97 vlineto
          110 49 64 86 hvcurveto
          114 121 callgsubr
          -97 126 hlineto
          endchar
        </CharString>
        <CharString name="U">
          68 338 666 -46 callsubr
          endchar
        </CharString>
        <CharString name="Uacute">
          68 338 666 -46 callsubr
          -140 147 -23 callsubr
        </CharString>
        <CharString name="Ucircumflex">
          68 338 666 -46 callsubr
          -125 42 -10 callgsubr
        </CharString>
        <CharString name="Udieresis">
          68 338 666 -46 callsubr
          -222 60 rmoveto
          -107 callgsubr
          125 hmoveto
          -107 callgsubr
          endchar
        </CharString>
        <CharString name="Ugrave">
          68 338 666 -46 callsubr
          -233 147 87 callsubr
        </CharString>
        <CharString name="Uhungarumlaut">
          68 278 813 rmoveto
          -37 -105 rlineto
          35 314 callsubr
          -130 hmoveto
          -37 -105 rlineto
          35 314 callsubr
          84 -147 -46 callsubr
          endchar
        </CharString>
        <CharString name="Umacron">
          68 338 666 -46 callsubr
          -264 114 141 callsubr
        </CharString>
        <CharString name="Uogonek">
          68 338 666 rmoveto
          -523 vlineto
          -64 -30 -44 -79 -79 -30 44 64 vhcurveto
          523 -50 -523 vlineto
          245 callgsubr
          13 12 1 2 12 vhcurveto
          -24 -25 -15 -32 -31 vvcurveto
          -43 26 -22 52 vhcurveto
          12 42 -12 hlineto
          -26 -13 9 27 31 18 35 31 24 hvcurveto
          50 26 23 50 59 vvcurveto
          523 vlineto
          endchar
        </CharString>
        <CharString name="Uring">
          68 338 666 -46 callsubr
          -156 24 25 callsubr
        </CharString>
        <CharString name="V">
          12 335 666 rmoveto
          -76 -343 -19 -90 -20 -90 -19 -90 rlinecurve
          -19 90 -20 89 -19 90 -76 344 rcurveline
          -52 hlineto
          150 -666 rlineto
          72 hlineto
          150 666 rlineto
          endchar
        </CharString>
        <CharString name="W">
          223 536 666 rmoveto
          -74 -446 rlineto
          -11 -68 -15 -107 0 vvcurveto
          0 -15 107 -11 68 vhcurveto
          -74 446 rlineto
          -59 hlineto
          -74 -445 rlineto
          -15 -88 -11 -88 0 vvcurveto
          0 -12 89 -14 86 vhcurveto
          -74 446 rlineto
          -52 hlineto
          116 -666 rlineto
          72 hlineto
          61 352 rlineto
          22 126 10 109 0 vvcurveto
          0 10 -105 23 -131 vhcurveto
          61 -351 rlineto
          72 hlineto
          116 666 rlineto
          endchar
        </CharString>
        <CharString name="X">
          -18 302 666 rmoveto
          -116 -273 -116 273 rlineto
          -55 hlineto
          145 -333 -145 -333 rlineto
          55 hlineto
          116 272 116 -272 rlineto
          55 hlineto
          -146 333 146 333 rlineto
          endchar
        </CharString>
        <CharString name="Y">
          140 callsubr
          endchar
        </CharString>
        <CharString name="Yacute">
          140 callsubr
          -174 147 -23 callsubr
        </CharString>
        <CharString name="Ydieresis">
          0 126 726 rmoveto
          -107 callgsubr
          125 hmoveto
          -107 callgsubr
          82 -60 rmoveto
          -76 -204 -20 -56 -21 -56 -20 -56 rlinecurve
          -21 56 -20 57 -21 56 -77 203 rcurveline
          -52 hlineto
          165 -436 rlineto
          -230 50 230 vlineto
          165 436 rlineto
          endchar
        </CharString>
        <CharString name="Z">
          71 callsubr
          endchar
        </CharString>
        <CharString name="Zacute">
          71 callsubr
          -139 147 -23 callsubr
        </CharString>
        <CharString name="Zcaron">
          71 callsubr
          -115 147 -43 callsubr
        </CharString>
        <CharString name="Zdotaccent">
          71 callsubr
          -158 89 -91 callsubr
        </CharString>
        <CharString name="a">
          -96 callgsubr
          endchar
        </CharString>
        <CharString name="aacute">
          -96 callgsubr
          -79 423 -23 callsubr
        </CharString>
        <CharString name="abreve">
          -96 callgsubr
          -27 423 38 callgsubr
          endchar
        </CharString>
        <CharString name="acircumflex">
          -96 callgsubr
          -53 318 -10 callgsubr
        </CharString>
        <CharString name="acute">
          -40 166 713 -23 callsubr
        </CharString>
        <CharString name="adieresis">
          -96 callgsubr
          -156 336 rmoveto
          -107 callgsubr
          125 hmoveto
          -107 callgsubr
          endchar
        </CharString>
        <CharString name="ae">
          258 188 568 rmoveto
          -49 -50 -9 -9 -28 hvcurveto
          -50 vlineto
          11 31 50 9 46 hhcurveto
          93 22 -32 -56 hvcurveto
          -95 vlineto
          -148 -42 rlineto
          -84 -24 -36 -45 -64 vvcurveto
          -32 vlineto
          -82 41 -52 99 61 62 21 31 35 vhcurveto
          -35 29 52 -18 75 hhcurveto
          277 callgsubr
          -40 35 62 hvcurveto
          113 265 167 vlineto
          86 -46 68 -110 -64 -45 -30 -30 -22 vhcurveto
          35 -25 -46 20 -72 hhcurveto
          115 -487 rmoveto
          -24 -27 -45 -17 -53 hhcurveto
          -70 -24 30 59 hvcurveto
          31 vlineto
          46 19 27 68 20 vhcurveto
          132 37 rlineto
          265 7 rmoveto
          -215 122 hlineto
          64 30 45 79 79 27 -45 -64 vhcurveto
          endchar
        </CharString>
        <CharString name="agrave">
          -96 callgsubr
          -171 423 87 callsubr
        </CharString>
        <CharString name="amacron">
          -96 callgsubr
          -205 390 141 callsubr
        </CharString>
        <CharString name="ampersand">
          55 222 35 rmoveto
          -79 -40 44 64 hvcurveto
          68 vlineto
          62 27 46 75 vhcurveto
          133 -176 hlineto
          -64 -37 -44 -79 vhcurveto
          -168 437 rmoveto
          -63 24 -47 55 -21 vhcurveto
          -55 -21 -25 -47 -62 vvcurveto
          -68 vlineto
          -86 59 134 callgsubr
          56 67 86 vhcurveto
          176 40 45 -40 57 -50 -57 -135 vlineto
          -75 -24 45 63 hvcurveto
          54 vlineto
          55 26 42 103 48 46 -10 -11 31 vhcurveto
          50 vlineto
          9 -28 -46 10 -51 hhcurveto
          -127 -52 -61 -84 hvcurveto
          endchar
        </CharString>
        <CharString name="aogonek">
          32 61 500 rmoveto
          11 31 50 9 46 hhcurveto
          93 22 -32 -56 hvcurveto
          -95 vlineto
          -148 -42 rlineto
          -84 -24 -36 -45 -64 vvcurveto
          -32 vlineto
          -82 41 -52 99 68 29 20 24 31 vhcurveto
          -40 16 vlineto
          1 callsubr
          1 432 hlineto
          85 -47 51 -117 -49 -50 -9 -9 -28 vhcurveto
          242 -464 rmoveto
          -24 -27 -45 -22 -53 hhcurveto
          -70 -24 30 59 hvcurveto
          31 vlineto
          46 19 27 68 20 vhcurveto
          132 37 rlineto
          endchar
        </CharString>
        <CharString name="apostrophemod">
          -243 70 708 171 callgsubr
        </CharString>
        <CharString name="approxequal">
          31 337 315 61 callsubr
          -37 130 61 callsubr
          endchar
        </CharString>
        <CharString name="aring">
          -96 callgsubr
          -94 300 25 callsubr
        </CharString>
        <CharString name="asciicircum">
          -105 229 374 rmoveto
          47 hlineto
          -99 270 rlineto
          -73 hlineto
          -100 -270 rlineto
          47 hlineto
          89 248 rlineto
          endchar
        </CharString>
        <CharString name="asciitilde">
          -15 313 382 61 callsubr
          endchar
        </CharString>
        <CharString name="asterisk">
          89 221 771 rmoveto
          -104 vlineto
          -27 5 -18 5 -10 vhcurveto
          -9 8 -15 9 -26 9 -99 32 rcurveline
          -12 -39 99 -32 26 -8 17 -1 12 1 rlinecurve
          -10 -6 -14 -11 -16 -22 -61 -84 rcurveline
          33 -24 61 85 16 21 6 17 3 11 rlinecurve
          2 -11 7 -17 16 -22 61 -84 rcurveline
          33 24 -62 85 -16 22 -14 11 -9 5 rlinecurve
          11 -1 18 1 26 9 99 32 rcurveline
          -13 39 -100 -33 -26 -9 -14 -9 -8 -8 rlinecurve
          4 10 5 18 27 vvcurveto
          104 vlineto
          endchar
        </CharString>
        <CharString name="at">
          451 424 -106 rmoveto
          84 42 -84 hlineto
          -221 -80 124 211 211 80 124 221 221 81 -113 -211 -160 -43 -46 -56 -48 -24 22 59 hvcurveto
          225 vlineto
          72 -37 52 -92 -41 -44 -7 -9 -37 vhcurveto
          -45 vlineto
          13 57 27 4 38 hhcurveto
          67 16 -33 -47 hvcurveto
          -55 vlineto
          -108 -32 rlineto
          -72 -22 -51 -27 -77 vvcurveto
          -11 vlineto
          -74 48 -40 78 71 39 25 10 12 vhcurveto
          -28 17 31 -18 53 hhcurveto
          92 54 69 180 238 -97 128 -252 -248 -100 -139 -238 -238 96 -139 252 hvcurveto
          85 226 rmoveto
          0 -36 -33 -69 -46 -30 19 51 vhcurveto
          12 vlineto
          55 30 12 50 15 vhcurveto
          101 30 rlineto
          endchar
        </CharString>
        <CharString name="atilde">
          -96 callgsubr
          -17 413 -50 callgsubr
        </CharString>
        <CharString name="b">
          53 75 713 rmoveto
          -713 156 vlineto
          88 59 53 95 hvcurveto
          284 vlineto
          85 -52 49 -83 -46 -48 -17 -10 -25 vhcurveto
          174 vlineto
          204 -565 rmoveto
          -71 -39 -32 -69 vhcurveto
          -95 446 hlineto
          14 38 39 14 41 hhcurveto
          53 32 -27 -60 hvcurveto
          endchar
        </CharString>
        <CharString name="backslash">
          -23 31 764 rmoveto
          269 -884 rlineto
          44 hlineto
          -269 884 rlineto
          endchar
        </CharString>
        <CharString name="bar">
          -187 80 784 rmoveto
          -924 43 924 vlineto
          endchar
        </CharString>
        <CharString name="braceleft">
          -55 185 648 rmoveto
          44 23 30 70 vhcurveto
          7 42 -8 hlineto
          -88 -49 -43 -73 hvcurveto
          -231 vlineto
          -44 -26 -30 -52 vhcurveto
          -2 -42 2 hlineto
          52 26 -30 -44 hvcurveto
          -231 vlineto
          -73 49 -43 88 vhcurveto
          8 42 -7 hlineto
          -70 -23 30 44 hvcurveto
          211 vlineto
          68 -17 40 -67 7 vhcurveto
          67 7 17 40 68 vvcurveto
          endchar
        </CharString>
        <CharString name="braceright">
          -55 273 343 rmoveto
          -52 -26 30 44 hvcurveto
          231 vlineto
          73 -49 43 -88 vhcurveto
          -8 -42 7 hlineto
          70 23 -30 -44 hvcurveto
          -211 vlineto
          -68 17 -40 67 -7 vhcurveto
          -67 -7 -17 -40 -68 vvcurveto
          -211 vlineto
          -44 -23 -30 -70 vhcurveto
          -7 -42 8 hlineto
          88 49 43 73 hvcurveto
          231 vlineto
          44 26 30 52 vhcurveto
          2 42 hlineto
          endchar
        </CharString>
        <CharString name="bracketleft">
          -115 80 764 rmoveto
          -884 169 40 -124 804 124 40 vlineto
          endchar
        </CharString>
        <CharString name="bracketright">
          -115 26 764 rmoveto
          -40 124 -804 -124 -40 169 884 vlineto
          endchar
        </CharString>
        <CharString name="breve">
          -40 239 713 38 callgsubr
          endchar
        </CharString>
        <CharString name="brokenbar">
          -187 80 784 rmoveto
          -375 43 375 vlineto
          -43 -549 rmoveto
          -375 43 375 vlineto
          endchar
        </CharString>
        <CharString name="bullet">
          -116 137 257 rmoveto
          47 18 27 38 37 -18 28 -47 -48 -17 -28 -37 -38 17 -27 48 hvcurveto
          endchar
        </CharString>
        <CharString name="c">
          -21 65 129 rmoveto
          -84 44 -50 117 43 35 7 7 25 vhcurveto
          21 callgsubr
          endchar
        </CharString>
        <CharString name="cacute">
          -21 65 129 rmoveto
          -84 44 -50 117 43 35 7 7 25 vhcurveto
          21 callgsubr
          178 280 -23 callsubr
        </CharString>
        <CharString name="caron">
          -40 210 713 -43 callsubr
        </CharString>
        <CharString name="ccaron">
          -21 65 129 rmoveto
          -84 44 -50 117 43 35 7 7 25 vhcurveto
          21 callgsubr
          188 280 -43 callsubr
        </CharString>
        <CharString name="ccedilla">
          -21 65 129 rmoveto
          -75 35 -48 91 -9 vhcurveto
          -13 -64 87 callgsubr
          8 35 rlineto
          1 2 0 1 hhcurveto
          43 35 7 7 25 hvcurveto
          21 callgsubr
          endchar
        </CharString>
        <CharString name="cedilla">
          -40 151 6 rmoveto
          -15 -73 87 callgsubr
          10 46 rlineto
          endchar
        </CharString>
        <CharString name="cent">
          15 211 653 rmoveto
          -86 vlineto
          -98 -7 -38 -49 -78 vvcurveto
          -304 vlineto
          -78 38 -49 99 -6 vhcurveto
          -76 45 76 vlineto
          33 1 28 6 21 6 rrcurveto
          47 vlineto
          -9 -27 -35 -6 -41 hhcurveto
          -93 -18 33 55 hvcurveto
          304 vlineto
          55 18 34 93 37 36 -5 -8 28 vhcurveto
          46 vlineto
          -19 6 -29 5 -33 2 rrcurveto
          85 vlineto
          endchar
        </CharString>
        <CharString name="circumflex">
          -40 210 608 -10 callgsubr
        </CharString>
        <CharString name="colon">
          -202 63 345 rmoveto
          3 callgsubr
          -350 vmoveto
          3 callgsubr
          endchar
        </CharString>
        <CharString name="comma">
          -264 247 callsubr
          endchar
        </CharString>
        <CharString name="copyright">
          291 342 hmoveto
          225 64 138 183 189 -51 134 -238 -236 -56 -137 -186 -186 62 -135 230 hvcurveto
          -116 269 rmoveto
          -78 31 -49 99 22 30 3 4 22 vhcurveto
          48 vlineto
          -7 -19 -19 -4 -36 hhcurveto
          -78 -5 36 47 hvcurveto
          105 vlineto
          47 5 37 78 35 19 -4 -7 19 vhcurveto
          47 vlineto
          5 -22 -29 2 -22 hhcurveto
          -99 -31 -49 -78 hvcurveto
          116 -330 rmoveto
          -209 -36 115 162 162 33 117 212 211 31 -115 -164 -159 -39 -118 -203 hvcurveto
          endchar
        </CharString>
        <CharString name="currency">
          70 326 298 rmoveto
          -64 -17 -35 -79 -79 -17 35 64 vhcurveto
          70 vlineto
          64 17 35 79 79 17 -35 -64 vhcurveto
          46 -220 rmoveto
          35 35 -44 43 rlineto
          8 20 4 25 27 vvcurveto
          70 vlineto
          27 -4 25 -8 20 vhcurveto
          44 43 -35 35 -38 -37 rlineto
          19 -23 -33 11 -48 hhcurveto
          -48 -33 -11 -19 -23 hvcurveto
          -38 37 -35 -35 44 -43 rlineto
          -8 -20 -4 -25 -27 vvcurveto
          -70 vlineto
          -27 4 -25 8 -20 vhcurveto
          -44 -43 35 -35 38 37 rlineto
          -19 23 33 -11 48 hhcurveto
          48 33 11 19 23 hvcurveto
          endchar
        </CharString>
        <CharString name="d">
          104 callsubr
          endchar
        </CharString>
        <CharString name="dagger">
          228 callgsubr
          0 -4 -64 -59 vvcurveto
          -514 43 514 vlineto
          59 -4 64 0 vhcurveto
          0 46 -4 52 vhcurveto
          40 vlineto
          -52 -46 -4 0 hvcurveto
          0 4 66 58 vvcurveto
          endchar
        </CharString>
        <CharString name="daggerdbl">
          228 callgsubr
          -2 -150 0 -181 2 -150 rrcurveto
          0 -40 4 -58 vhcurveto
          -40 vlineto
          58 40 4 0 hvcurveto
          0 -4 -51 -73 vvcurveto
          43 hlineto
          73 -4 51 0 vhcurveto
          304 callgsubr
          2 150 0 181 -2 150 rrcurveto
          304 callgsubr
          0 4 66 58 vvcurveto
          endchar
        </CharString>
        <CharString name="danda">
          -115 150 hmoveto
          45 644 -45 hlineto
          endchar
        </CharString>
        <CharString name="dcaron">
          104 callsubr
          118 194 -65 callgsubr
        </CharString>
        <CharString name="dcroat">
          53 318 713 rmoveto
          -47 -123 -41 123 -62 -107 vlineto
          -82 -64 -48 -94 hvcurveto
          -279 vlineto
          -93 49 -52 95 57 31 17 17 22 vhcurveto
          -31 49 625 40 41 -40 47 vlineto
          -50 -631 rmoveto
          -20 -20 -36 -20 -52 hhcurveto
          -63 -32 32 67 hvcurveto
          280 vlineto
          64 38 32 70 vhcurveto
          95 hlineto
          endchar
        </CharString>
        <CharString name="degree">
          -38 179 510 260 callsubr
          39 vmoveto
          -73 -11 42 52 52 11 43 73 73 12 -43 -52 -52 -12 -42 -73 hvcurveto
          endchar
        </CharString>
        <CharString name="dieresis">
          -40 112 626 rmoveto
          -107 callgsubr
          125 hmoveto
          -107 callgsubr
          endchar
        </CharString>
        <CharString name="divide">
          31 40 341 262 callsubr
          -167 -226 rmoveto
          -107 callgsubr
          343 vmoveto
          -107 callgsubr
          endchar
        </CharString>
        <CharString name="dollar">
          -16 163 733 rmoveto
          -63 vlineto
          -89 -9 -44 -50 -74 vvcurveto
          -58 vlineto
          -67 29 -40 55 -30 vhcurveto
          117 -64 rlineto
          44 -24 14 -24 -47 vvcurveto
          -49 vlineto
          -54 -34 -39 -92 -48 -50 10 288 callsubr
          26 -9 46 -9 47 -1 rrcurveto
          -75 45 77 vlineto
          97 9 44 51 77 vvcurveto
          52 vlineto
          62 -26 40 -55 30 vhcurveto
          -117 65 rlineto
          -42 23 -19 27 49 vvcurveto
          57 vlineto
          57 38 29 74 48 48 -7 -10 28 vhcurveto
          48 vlineto
          -25 7 -39 7 -44 1 rrcurveto
          62 vlineto
          endchar
        </CharString>
        <CharString name="dotaccent">
          -40 173 655 -91 callsubr
        </CharString>
        <CharString name="dotlessi">
          109 callgsubr
          endchar
        </CharString>
        <CharString name="dottedcircle">
          270 183 472 rmoveto
          26 18 19 26 25 -18 19 -26 -26 -18 -19 -25 -26 18 -19 26 hvcurveto
          -80 -109 rmoveto
          24 20 19 25 25 -20 19 -24 -26 -20 -19 -25 -25 20 -19 26 hvcurveto
          -15 -125 rmoveto
          26 18 18 315 callgsubr
          -18 25 hvcurveto
          52 -117 rmoveto
          25 19 18 26 25 -19 19 -25 -26 -18 -19 -25 -26 18 -18 26 hvcurveto
          102 -77 rmoveto
          25 19 20 26 24 -19 20 -25 -26 -19 -20 -24 -26 19 -20 26 hvcurveto
          126 -14 rmoveto
          26 19 18 26 26 -19 18 -26 279 callsubr
          121 53 rmoveto
          25 20 18 26 25 -20 19 -25 -25 -19 -19 -25 -26 19 -18 25 hvcurveto
          74 98 rmoveto
          24 19 19 25 26 -19 19 -24 -26 -19 -19 -26 -25 19 -19 26 hvcurveto
          9 134 rmoveto
          25 19 18 26 26 -19 18 -25 279 callsubr
          -50 118 rmoveto
          26 18 19 315 callgsubr
          -19 25 hvcurveto
          -94 68 rmoveto
          25 18 20 24 26 -18 19 -25 -26 -19 -19 -26 -24 19 -20 26 hvcurveto
          -127 15 rmoveto
          26 18 18 26 26 -18 18 -26 279 callsubr
          endchar
        </CharString>
        <CharString name="doubledanda">
          57 130 hmoveto
          45 644 -45 hlineto
          192 -644 rmoveto
          45 644 -45 hlineto
          endchar
        </CharString>
        <CharString name="dvA">
          160 250 160 rmoveto
          53 callsubr
          100 40 -145 -391 -130 vlineto
          -58 callgsubr
          endchar
        </CharString>
        <CharString name="dvAA">
          394 280 160 rmoveto
          20 callgsubr
          -350 -391 -130 vlineto
          -58 callgsubr
          endchar
        </CharString>
        <CharString name="dvAI">
          33 306 644 rmoveto
          -326 -40 95 -492 hlineto
          326 callgsubr
          42 vlineto
          -8 -23 -49 -12 -49 hhcurveto
          -72 -28 30 45 hvcurveto
          492 100 callgsubr
          -90 vlineto
          -159 229 rlineto
          -52 hlineto
          endchar
        </CharString>
        <CharString name="dvAU">
          395 386 -19 callgsubr
          -117 -391 -130 hlineto
          -58 callgsubr
          -80 vlineto
          20 callgsubr
          -102 vlineto
          32 callgsubr
          endchar
        </CharString>
        <CharString name="dvAbbreviationsign">
          -38 179 201 260 callsubr
          228 vmoveto
          73 12 -43 -52 -52 -12 -42 -73 -73 -11 42 52 52 11 43 73 hvcurveto
          endchar
        </CharString>
        <CharString name="dvAcandra">
          160 250 160 rmoveto
          53 callsubr
          100 40 -145 -391 -130 vlineto
          -58 callgsubr
          302 579 5 callgsubr
          endchar
        </CharString>
        <CharString name="dvAnusvara">
          -390 -103 727 -91 callsubr
        </CharString>
        <CharString name="dvAnusvara.amI">
          -390 46 707 -91 callsubr
        </CharString>
        <CharString name="dvAvagraha">
          30 380 203 rmoveto
          60 -19 43 -64 33 vhcurveto
          -137 72 rlineto
          -45 24 -9 31 39 vvcurveto
          27 vlineto
          40 8 30 85 vhcurveto
          158 42 -158 hlineto
          -105 -33 -42 -70 hvcurveto
          -27 vlineto
          -60 19 -43 64 -33 vhcurveto
          137 -72 rlineto
          45 -24 9 -31 -39 vvcurveto
          -76 vlineto
          -50 -17 -40 -95 vhcurveto
          -2 hlineto
          -95 -17 40 50 hvcurveto
          70 -45 -70 vlineto
          -80 42 -52 115 vhcurveto
          2 hlineto
          115 42 52 80 hvcurveto
          endchar
        </CharString>
        <CharString name="dvB">
          -181 -20 644 rmoveto
          -40 350 40 vlineto
          -280 -453 rmoveto
          -75 45 -42 95 100 40 42 75 vhcurveto
          197 275 callsubr
          -100 -95 -45 -42 -75 vhcurveto
          235 -185 rmoveto
          -179 226 rlineto
          20 13 25 14 46 hhcurveto
          72 23 -34 -42 hvcurveto
          -190 -5 rmoveto
          182 -230 rlineto
          -23 -12 -25 -13 -50 hhcurveto
          -75 -20 30 45 hvcurveto
          endchar
        </CharString>
        <CharString name="dvBA">
          17 285 172 callgsubr
          -190 vlineto
          86 callgsubr
          -447 -40 305 vlineto
          -89 -141 rmoveto
          -17 callsubr
          -347 vmoveto
          -44 callgsubr
          151 vlineto
          190 -144 rlineto
          -72 vlineto
          -4 -9 -31 -10 -49 hhcurveto
          endchar
        </CharString>
        <CharString name="dvBH">
          6 144 callgsubr
          222 40 rmoveto
          -177 29 callsubr
          177 vlineto
          endchar
        </CharString>
        <CharString name="dvBHA">
          181 144 callgsubr
          40 vmoveto
          178 callsubr
          -101 vlineto
          -75 37 -37 90 90 37 37 75 vhcurveto
          -52 callgsubr
        </CharString>
        <CharString name="dvBH_LA">
          604 144 callgsubr
          655 -346 155 callsubr
          -650 -40 505 158 callgsubr
          -76 -41 -34 -56 -10 hvcurveto
          -138 29 callsubr
          135 -200 vlineto
          -90 -95 callsubr
          vlineto
          endchar
        </CharString>
        <CharString name="dvBH_NA">
          557 144 callgsubr
          608 -346 155 callsubr
          -603 -40 458 236 callgsubr
          -72 -43 -29 -61 -7 hvcurveto
          -131 146 hlineto
          -16 callgsubr
          -27 4 -29 198 callsubr
          30 26 vvcurveto
          -30 callgsubr
          -146 163 callgsubr
          181 callsubr
          130 -171 -91 callgsubr
          155 -436 hlineto
          -200 436 115 callgsubr
        </CharString>
        <CharString name="dvBH_R">
          13 487 416 rmoveto
          -176 116 hlineto
          -16 callgsubr
          -25 184 callgsubr
          27 29 220 callgsubr
          -90 -37 -35 -75 hvcurveto
          -61 -62 callsubr
          131 176 vlineto
          -111 vmoveto
          -297 -309 rlineto
          63 hlineto
          111 117 41 42 57 68 25 33 rlinecurve
          -221 29 -90 callsubr
          61 -79 callsubr
          endchar
        </CharString>
        <CharString name="dvBH_RA">
          191 456 233 0 callsubr
          -90 -37 -35 -75 hvcurveto
          -61 -62 callsubr
          131 145 vlineto
          -190 -131 -90 callsubr
          61 -79 callsubr
          endchar
        </CharString>
        <CharString name="dvBH_R_YA">
          485 259 245 -90 callsubr
          46 -79 callsubr
          45 40 rmoveto
          131 39 callsubr
          vhcurveto
          -41 45 41 vlineto
          -30 callgsubr
          -131 163 callgsubr
          -46 -62 callsubr
          116 100 vlineto
          18 16 -3 -11 6 hvcurveto
          -94 vlineto
          -11 1 -11 -9 vvcurveto
          -255 -266 rlineto
          63 hlineto
          111 117 28 29 35 40 28 34 rlinecurve
          -73 25 63 -18 75 hhcurveto
          75 38 19 28 19 hvcurveto
          -132 -104 callsubr
          -531 -40 127 vlineto
          69 18 -30 -45 hvcurveto
          -68 vlineto
          -60 -27 -15 -83 vhcurveto
          10 -11 -19 5 -28 hhcurveto
          79 -148 rmoveto
          91 -61 callsubr
          68 232 callsubr
        </CharString>
        <CharString name="dvBH_VA">
          417 682 130 22 callgsubr
          -423 -274 62 callsubr
          468 -346 155 callsubr
          -460 -40 315 161 callgsubr
          -93 -51 -48 -71 -2 hvcurveto
          -133 29 callsubr
          133 -147 216 callgsubr
        </CharString>
        <CharString name="dvBH_YA">
          485 259 175 -90 callsubr
          116 -79 callsubr
          142 hmoveto
          -24 callsubr
          -24 5 -32 -8 callgsubr
          -5 31 25 289 callgsubr
          -90 -37 -35 -75 hvcurveto
          -116 -62 callsubr
          186 vlineto
          319 168 -107 callsubr
          endchar
        </CharString>
        <CharString name="dvB_BA">
          252 520 172 callgsubr
          -137 vlineto
          -74 callsubr
          61 38 16 28 21 vhcurveto
          -28 24 41 -16 56 hhcurveto
          49 31 10 4 9 hvcurveto
          -88 42 -99 callgsubr
          -682 -40 540 vlineto
          -330 -488 rmoveto
          -58 callsubr
          241 hmoveto
          -20 callsubr
        </CharString>
        <CharString name="dvB_BHA">
          416 -20 604 rmoveto
          252 40 -252 hlineto
          514 -469 62 callsubr
          -304 -230 rmoveto
          -58 callsubr
          304 270 rmoveto
          178 callsubr
          -28 vlineto
          -74 callsubr
          53 36 12 22 22 vhcurveto
          -30 18 36 -15 57 199 callgsubr
          -52 callgsubr
        </CharString>
        <CharString name="dvB_BH_RA">
          419 -20 604 rmoveto
          258 40 -258 hlineto
          704 -411 0 callsubr
          -90 -37 -35 -75 hvcurveto
          -58 vlineto
          -74 callsubr
          81 42 28 51 13 vhcurveto
          -14 20 28 -6 38 199 callgsubr
          131 145 vlineto
          -494 -260 rmoveto
          -58 callsubr
          304 129 -90 callsubr
          61 -79 callsubr
          endchar
        </CharString>
        <CharString name="dvB_DA">
          245 190 116 rmoveto
          -58 callsubr
          382 112 rmoveto
          -42 -99 hlineto
          -25 callsubr
          184 -37 callsubr
          -675 -40 530 -100 -85 76 callsubr
          -139 vlineto
          -74 callsubr
          63 40 17 31 20 vhcurveto
          -29 26 42 -16 56 hhcurveto
          40 24 3 7 29 hvcurveto
          -97 42 vlineto
          endchar
        </CharString>
        <CharString name="dvB_DHA">
          314 190 116 rmoveto
          -58 callsubr
          110 488 rmoveto
          175 callsubr
          -16 vlineto
          -74 callsubr
          62 39 16 30 20 vhcurveto
          -39 31 55 -17 65 hhcurveto
          51 35 6 9 31 hvcurveto
          -1 callsubr
          -474 -40 hlineto
          endchar
        </CharString>
        <CharString name="dvB_DH_VA">
          543 190 116 rmoveto
          -58 callsubr
          618 375 -18 callgsubr
          -444 -40 320 hlineto
          0 -9 -25 -50 vvcurveto
          -53 -13 callgsubr
          -36 vlineto
          -74 callsubr
          72 41 22 40 17 vhcurveto
          -32 32 51 -14 59 hhcurveto
          41 55 9 10 39 hvcurveto
          -23 25 38 -12 49 78 callgsubr
          -406 -40 261 vlineto
          -474 vmoveto
          -99 callsubr
          endchar
        </CharString>
        <CharString name="dvB_JA">
          450 565 380 rmoveto
          -87 callsubr
          158 -455 327 callgsubr
          -109 -316 11 callsubr
          -470 190 77 callsubr
        </CharString>
        <CharString name="dvB_JHA">
          518 190 116 rmoveto
          -58 callsubr
          325 151 rmoveto
          260 callgsubr
          -50 vlineto
          -45 -26 -31 4 callgsubr
          40 43 75 hvcurveto
          50 282 callgsubr
          -268 -104 callsubr
          -948 -40 620 -99 -88 284 callsubr
          -7 vlineto
          -30 7 -25 15 -19 vhcurveto
          -109 -61 hlineto
          -190 145 rlineto
          42 2 21 28 72 hhcurveto
          30 27 -5 0 hvcurveto
          42 vlineto
          0 -28 5 -29 -95 -45 -42 -75 vhcurveto
          272 callsubr
          45 -42 95 100 40 42 75 vhcurveto
          76 174 0 vlineto
          287 callgsubr
          122 callsubr
        </CharString>
        <CharString name="dvB_J_YA">
          726 864 529 rmoveto
          -69 callsubr
          -465 hlineto
          -5 -26 -42 -7 -69 callgsubr
          107 -61 callsubr
          127 -477 rmoveto
          -104 callsubr
          -1156 -40 831 hlineto
          -83 callgsubr
          -52 vlineto
          -56 -23 -16 -69 -3 vhcurveto
          75 -3 -43 18 -65 hhcurveto
          -217 11 callsubr
          188 -71 callsubr
          45 hlineto
          57 26 -5 -50 hvcurveto
          -147 vlineto
          -1 callgsubr
          50 44 7 5 24 vhcurveto
          -896 285 77 callsubr
        </CharString>
        <CharString name="dvB_JxA">
          450 565 192 rmoveto
          188 -71 callsubr
          158 -455 327 callgsubr
          -109 -316 11 callsubr
          -269 -182 rmoveto
          266 callsubr
          -201 372 77 callsubr
        </CharString>
        <CharString name="dvB_LA">
          450 190 116 rmoveto
          -58 callsubr
          570 488 rmoveto
          100 40 -880 -40 735 215 callgsubr
          -106 vlineto
          -74 callsubr
          45 33 8 16 22 vhcurveto
          -61 15 46 -37 89 hhcurveto
          6 callgsubr
          hvcurveto
          142 callgsubr
          45 vlineto
          endchar
        </CharString>
        <CharString name="dvB_L_YA">
          741 190 116 rmoveto
          -58 callsubr
          689 413 135 callgsubr
          59 -9 -38 36 -76 hhcurveto
          -47 -30 122 callgsubr
          252 callsubr
          -106 vlineto
          -74 callsubr
          45 33 8 16 22 vhcurveto
          -61 15 46 -37 89 hhcurveto
          83 callgsubr
          -101 vlineto
          -92 callgsubr
          -1171 -40 vlineto
          endchar
        </CharString>
        <CharString name="dvB_NA">
          408 190 463 rmoveto
          71 24 -26 -49 hvcurveto
          -140 305 callsubr
          -347 vmoveto
          -58 callsubr
          483 320 rmoveto
          -436 -104 callsubr
          -838 -40 693 236 callgsubr
          -40 -30 -9 -17 -21 hvcurveto
          36 -19 -40 19 -68 hhcurveto
          10 callsubr
          272 callsubr
          45 -42 95 53 36 12 22 23 vhcurveto
          -30 19 36 -15 51 -60 callgsubr
        </CharString>
        <CharString name="dvB_R">
          -176 48 -63 rmoveto
          65 hlineto
          156 145 rlineto
          46 42 20 20 56 vvcurveto
          188 275 callsubr
          -100 -95 -45 -42 -75 vhcurveto
          -188 vlineto
          -75 43 -45 110 3 vhcurveto
          -228 521 rmoveto
          375 40 -375 hlineto
          215 -181 rmoveto
          71 24 -26 -49 hvcurveto
          -132 vlineto
          -190 138 rlineto
          42 2 22 27 71 hhcurveto
          -338 vmoveto
          -75 -20 30 45 hvcurveto
          148 vlineto
          190 -138 rlineto
          -10 vlineto
          -48 -24 -27 -71 vhcurveto
          endchar
        </CharString>
        <CharString name="dvB_RA">
          22 290 172 callgsubr
          192 callgsubr
          -114 42 -99 callgsubr
          -452 -40 310 vlineto
          -89 -462 131 callsubr
        </CharString>
        <CharString name="dvB_SA">
          420 190 116 rmoveto
          -58 callsubr
          380 -105 -89 callgsubr
          171 -297 -104 callsubr
          -850 -40 512 hlineto
          -89 callsubr
          -202 305 callsubr
          17 16 -3 0 hvcurveto
          42 vlineto
          0 -16 3 -17 -95 -45 -42 -75 vhcurveto
          272 callsubr
          45 -42 95 44 32 8 15 22 vhcurveto
          -70 15 62 -32 82 hhcurveto
          57 44 10 6 22 hvcurveto
          115 326 rmoveto
          -147 hlineto
          -83 callsubr
          148 hlineto
          endchar
        </CharString>
        <CharString name="dvB_SHA">
          412 -20 604 rmoveto
          250 40 -250 hlineto
          697 hmoveto
          -644 -104 callsubr
          vlineto
          -632 -528 rmoveto
          -58 callsubr
          375 411 rmoveto
          75 -45 47 -95 -95 -45 -47 -75 -17 3 -20 -8 callgsubr
          -3 18 19 vvcurveto
          -47 callsubr
          -145 vlineto
          -45 -20 -35 -75 -34 -34 7 9 -27 vhcurveto
          86 -45 -156 vlineto
          -74 callsubr
          44 33 8 16 22 vhcurveto
          -67 17 64 -36 82 hhcurveto
          170 callgsubr
          hvcurveto
          -77 callgsubr
          endchar
        </CharString>
        <CharString name="dvB_TA">
          265 190 116 rmoveto
          -58 callsubr
          235 -75 rmoveto
          -75 -2 -20 31 45 vvcurveto
          268 140 callgsubr
          36 -8 -6 25 vhcurveto
          -449 -104 callsubr
          -695 -40 550 -114 vlineto
          316 callsubr
          -135 vlineto
          -74 callsubr
          42 32 7 15 22 vhcurveto
          -59 7 40 -38 74 hhcurveto
          18 hlineto
          endchar
        </CharString>
        <CharString name="dvB_VA">
          265 190 116 rmoveto
          -58 callsubr
          340 375 rmoveto
          76 callgsubr
          -133 vlineto
          -74 callsubr
          61 39 16 29 21 vhcurveto
          -29 24 40 -16 56 78 callgsubr
          -695 -40 550 vlineto
          -474 vmoveto
          -99 callsubr
          endchar
        </CharString>
        <CharString name="dvB_YA">
          326 190 116 rmoveto
          -58 callsubr
          274 413 135 callsubr
          -133 hlineto
          -74 callsubr
          73 41 22 41 17 vhcurveto
          -41 35 58 -11 59 -13 callsubr
          -756 -40 vlineto
          endchar
        </CharString>
        <CharString name="dvC">
          298 callgsubr
          12 -480 rmoveto
          -11 -33 -45 -7 -35 hhcurveto
          -73 -5 callgsubr
          99 38 50 9 9 25 vhcurveto
          endchar
        </CharString>
        <CharString name="dvCA">
          65 140 344 rmoveto
          54 callsubr
          99 38 30 6 9 25 vhcurveto
          -79 331 callgsubr
          40 -495 -40 350 171 callsubr
          endchar
        </CharString>
        <CharString name="dvCH">
          103 253 484 rmoveto
          -44 vlineto
          0 25 11 31 69 11 -30 -45 vhcurveto
          -209 vlineto
          -75 -27 -23 -112 -112 -28 23 75 vhcurveto
          149 callsubr
          47 42 -47 hlineto
          -75 1 -16 29 45 vvcurveto
          132 vlineto
          57 29 18 48 vhcurveto
          320 40 -533 -40 123 hlineto
          -20 -10 -12 -20 -45 vvcurveto
          -132 vlineto
          48 callgsubr
          209 vlineto
          60 -24 57 -95 vhcurveto
          -33 1 -29 -10 0 vvcurveto
          endchar
        </CharString>
        <CharString name="dvCHA">
          104 71 397 rmoveto
          48 callgsubr
          -53 callsubr
          endchar
        </CharString>
        <CharString name="dvCH_R">
          104 71 265 callsubr
          -90 41 -40 101 -8 vhcurveto
          -90 -161 rlineto
          49 hlineto
          86 159 rlineto
          2 hlineto
          86 -159 rlineto
          311 callgsubr
          -1 hlineto
          97 9 39 40 89 vvcurveto
          -53 callsubr
          259 -697 -11 callgsubr
          endchar
        </CharString>
        <CharString name="dvCH_RA">
          104 71 265 callsubr
          -90 41 -40 101 -8 vhcurveto
          -90 -161 rlineto
          49 hlineto
          86 159 rlineto
          2 hlineto
          86 -159 rlineto
          311 callgsubr
          -1 hlineto
          97 9 39 40 89 vvcurveto
          -53 callsubr
          endchar
        </CharString>
        <CharString name="dvCH_R_YA">
          591 340 -132 rmoveto
          311 callgsubr
          -1 hlineto
          97 9 39 40 89 vvcurveto
          209 vlineto
          31 -6 26 -13 19 vhcurveto
          190 hlineto
          66 13 -30 -45 hvcurveto
          -7 -4 callgsubr
          -1021 -40 101 211 callsubr
          -132 vlineto
          84 callgsubr
          -90 41 -40 101 -8 vhcurveto
          -90 -161 rlineto
          49 hlineto
          86 159 rlineto
          2 hlineto
          479 100 rmoveto
          -101 -37 40 86 hvcurveto
          1 vlineto
          80 54 33 83 hvcurveto
          7 270 callsubr
          vhcurveto
          -249 110 500 162 callgsubr
          -617 402 17 callgsubr
        </CharString>
        <CharString name="dvCH_YA">
          570 880 hmoveto
          -99 callgsubr
          -1000 -40 123 vlineto
          -20 -10 -12 -20 -45 vvcurveto
          -132 vlineto
          48 callgsubr
          239 vlineto
          16 -2 16 -4 14 vhcurveto
          156 hlineto
          66 13 -30 -45 hvcurveto
          -7 vlineto
          -60 -29 -14 -85 vhcurveto
          -20 -43 hlineto
          -138 87 -30 96 45 46 7 5 32 vhcurveto
          -97 vlineto
          -582 514 rmoveto
          -44 vlineto
          0 25 11 31 69 11 -30 -45 vhcurveto
          -239 vlineto
          -75 -27 -23 -112 -112 -28 23 75 vhcurveto
          149 callsubr
          47 42 -47 hlineto
          -75 1 -16 29 45 vvcurveto
          132 vlineto
          57 29 18 48 vhcurveto
          642 162 callgsubr
          -101 -37 40 86 hvcurveto
          1 vlineto
          80 54 33 83 hvcurveto
          7 270 callsubr
          vhcurveto
          -180 hlineto
          18 -19 -28 11 -42 hhcurveto
          -33 1 -29 -10 0 vvcurveto
          endchar
        </CharString>
        <CharString name="dvC_CA">
          310 385 344 rmoveto
          62 10 33 0 vhcurveto
          121 40 -219 -40 53 hlineto
          0 -10 -32 -63 vvcurveto
          -157 vlineto
          -25 5 -22 9 -18 vhcurveto
          -9 -31 -38 -7 -44 hhcurveto
          -73 -28 24 57 hvcurveto
          157 vlineto
          62 10 33 0 vhcurveto
          86 40 -224 -40 93 hlineto
          0 -10 -32 -63 vvcurveto
          -157 vlineto
          -76 47 -47 99 50 62 13 13 30 vhcurveto
          -17 23 32 -9 44 hhcurveto
          38 30 6 9 25 hvcurveto
          284 callgsubr
          -740 -40 595 171 callsubr
          endchar
        </CharString>
        <CharString name="dvC_CHA">
          79 callgsubr
          -41 26 53 -17 87 hhcurveto
          287 callsubr
          hvcurveto
          209 vlineto
          60 -22 40 -56 12 vhcurveto
          116 158 40 -809 -40 376 94 callgsubr
          endchar
        </CharString>
        <CharString name="dvC_CH_VA">
          79 callgsubr
          11 -18 17 -14 23 -9 rrcurveto
          -28 -20 -14 -31 -41 vvcurveto
          -37 vlineto
          -75 49 -41 95 39 33 4 8 28 vhcurveto
          -66 44 306 vlineto
          37 22 16 37 57 vvcurveto
          218 callgsubr
          166 -689 rmoveto
          -75 -25 30 45 hvcurveto
          37 116 callsubr
          75 vhcurveto
          0 vlineto
          5 6 0 5 hhcurveto
          34 29 2 6 24 hvcurveto
          -183 vlineto
          -9 -32 -29 -3 -39 hhcurveto
          -121 689 17 callgsubr
        </CharString>
        <CharString name="dvC_MA">
          461 584 165 callsubr
          -187 -251 -86 callgsubr
          187 -386 rmoveto
          -104 callsubr
          -891 -40 559 241 callgsubr
          -21 3 -18 6 -15 vhcurveto
          -8 -30 -38 -7 -34 hhcurveto
          -73 -5 callgsubr
          99 44 58 13 9 26 vhcurveto
          -15 21 30 -8 41 157 callgsubr
        </CharString>
        <CharString name="dvC_NA">
          453 718 436 rmoveto
          -436 -104 callsubr
          -893 -40 748 234 callsubr
          -20 3 -18 6 -14 vhcurveto
          -10 -34 -40 -7 -38 hhcurveto
          -73 -5 callgsubr
          99 49 55 13 12 33 vhcurveto
          -17 21 30 -9 38 -60 callgsubr
        </CharString>
        <CharString name="dvC_R">
          298 callgsubr
          28 -484 rmoveto
          -9 -33 -36 -5 -48 hhcurveto
          -85 -5 callgsubr
          110 18 16 1 2 14 vhcurveto
          -145 -126 rlineto
          59 hlineto
          156 139 rlineto
          endchar
        </CharString>
        <CharString name="dvC_RA">
          65 140 239 callgsubr
          -123 323 callgsubr
          vhcurveto
          5 6 0 5 hhcurveto
          -164 -157 rlineto
          61 hlineto
          179 172 rlineto
          1 -113 -104 callsubr
          -495 -40 350 -449 hlineto
          -11 -33 -25 -4 256 callgsubr
          endchar
        </CharString>
        <CharString name="dvC_YA">
          371 509 529 -81 callsubr
          -47 11 -35 18 -25 vhcurveto
          -10 -33 -44 -10 -45 263 callgsubr
          137 vlineto
          -4 callsubr
          -137 323 callgsubr
          70 59 22 9 26 vhcurveto
          -23 34 46 159 callgsubr
          -801 -40 vlineto
          endchar
        </CharString>
        <CharString name="dvCandrabindu">
          -390 -103 813 rmoveto
          -107 callgsubr
          105 6 5 callgsubr
          endchar
        </CharString>
        <CharString name="dvD">
          7 47 203 rmoveto
          -67 callgsubr
          -437 -40 292 -100 -85 hlineto
          -95 -45 -42 -75 hvcurveto
          390 -589 -11 callgsubr
          endchar
        </CharString>
        <CharString name="dvDA">
          7 47 203 rmoveto
          -67 callgsubr
          -437 -40 292 -100 -85 hlineto
          -95 -45 -42 -75 hvcurveto
          endchar
        </CharString>
        <CharString name="dvDA_mvR">
          7 47 273 rmoveto
          -79 57 -47 95 40 24 3 7 29 vhcurveto
          -58 vlineto
          1 -9 -9 0 -7 hhcurveto
          -75 -52 -30 -95 -95 57 -30 75 26 14 1 4 27 hvcurveto
          45 vlineto
          -3 -23 -22 -2 -22 hhcurveto
          -45 -45 5 75 75 40 5 45 14 33 -2 -3 20 hvcurveto
          248 -42 -99 91 callgsubr
          114 207 callgsubr
        </CharString>
        <CharString name="dvDD">
          17 352 159 -56 callgsubr
          -10 43 42 -4 49 hhcurveto
          221 callsubr
          -32 -318 -11 callgsubr
          endchar
        </CharString>
        <CharString name="dvDDA">
          17 352 159 -56 callgsubr
          -10 43 42 -4 49 hhcurveto
          221 callsubr
          endchar
        </CharString>
        <CharString name="dvDDH">
          318 callgsubr
          -265 vlineto
          -78 45 -49 100 324 callsubr
          vhcurveto
          -32 callgsubr
          115 142 105 40 -440 288 callgsubr
          56 -706 -11 callgsubr
          endchar
        </CharString>
        <CharString name="dvDDHA">
          318 callgsubr
          -265 vlineto
          -78 45 -49 100 324 callsubr
          vhcurveto
          -32 callgsubr
          115 142 105 40 -440 288 callgsubr
          endchar
        </CharString>
        <CharString name="dvDDH_DDHA">
          318 callgsubr
          -168 vlineto
          -47 16 -36 34 -21 vhcurveto
          -34 -20 -16 -33 -45 vvcurveto
          -156 vlineto
          -78 45 -49 100 324 callsubr
          vhcurveto
          14 107 callgsubr
          -14 vlineto
          -48 -20 -37 -80 -80 -20 37 48 vhcurveto
          156 -21 callsubr
          5 hlineto
          324 callsubr
          hvcurveto
          16 107 callgsubr
          -16 vlineto
          -48 -20 -37 -80 -80 -20 37 48 vhcurveto
          168 -21 callsubr
          115 142 105 40 -440 288 callgsubr
          endchar
        </CharString>
        <CharString name="dvDDH_R">
          10 330 -303 -11 callgsubr
          -78 807 31 callgsubr
        </CharString>
        <CharString name="dvDDH_RA">
          10 200 504 31 callgsubr
        </CharString>
        <CharString name="dvDDH_VA">
          20 225 callgsubr
          -168 vlineto
          -47 16 -36 34 -21 vhcurveto
          -34 -20 -17 -33 278 callsubr
          43 330 vlineto
          16 20 7 27 32 vvcurveto
          16 107 callgsubr
          -16 vlineto
          -48 -20 -37 -80 -80 -20 37 48 vhcurveto
          168 -21 callsubr
          115 142 115 40 -450 288 callgsubr
          -76 -599 159 callsubr
          vhcurveto
          0 vlineto
          1 2 0 1 hhcurveto
          32 26 5 9 21 hvcurveto
          -191 255 callsubr
          endchar
        </CharString>
        <CharString name="dvDDH_YA">
          476 205 -5 rmoveto
          324 callsubr
          hvcurveto
          -32 callgsubr
          290 hlineto
          66 13 -30 -45 hvcurveto
          -17 -4 callgsubr
          -906 -40 290 -100 -70 312 callgsubr
          -265 vlineto
          -78 45 -49 100 vhcurveto
          413 132 81 callsubr
          -175 100 426 162 callgsubr
          endchar
        </CharString>
        <CharString name="dvDDHxA">
          10 200 504 93 callgsubr
          -440 288 callgsubr
          -67 -669 -91 callsubr
        </CharString>
        <CharString name="dvDD_DDA">
          22 41 109 rmoveto
          13 -3 15 -2 15 -3 rrcurveto
          -18 -17 -11 -25 -34 vvcurveto
          -75 45 -31 85 vhcurveto
          42 hlineto
          65 20 -19 -45 hvcurveto
          -18 vlineto
          -55 -22 -19 -85 -40 -59 7 11 -51 vhcurveto
          -42 vlineto
          -10 44 53 -8 53 224 callgsubr
          0 vlineto
          7 6 0 7 252 callgsubr
          hvcurveto
          4 vlineto
          45 20 18 65 vhcurveto
          51 callsubr
          endchar
        </CharString>
        <CharString name="dvDD_DDHA">
          305 callgsubr
          -23 -20 -13 -28 -35 vvcurveto
          -156 vlineto
          -78 45 -49 100 324 callsubr
          vhcurveto
          14 107 callgsubr
          -14 vlineto
          -48 -20 -37 -80 -80 -20 37 48 vhcurveto
          156 -21 callsubr
          0 vlineto
          2 3 0 2 224 callgsubr
          51 callsubr
          endchar
        </CharString>
        <CharString name="dvDD_R">
          17 352 159 -56 callgsubr
          30 -7 30 -4 32 -2 -84 -151 rcurveline
          186 callgsubr
          1 6 293 callgsubr
          67 14 33 40 62 vvcurveto
          -29 -419 -11 callgsubr
          endchar
        </CharString>
        <CharString name="dvDD_RA">
          17 352 159 -56 callgsubr
          30 -7 30 -4 32 -2 -84 -151 rcurveline
          186 callgsubr
          1 6 293 callgsubr
          67 14 33 40 62 vvcurveto
          endchar
        </CharString>
        <CharString name="dvDD_VA">
          305 callgsubr
          -21 -20 -10 -28 -35 132 callgsubr
          43 317 vlineto
          18 19 8 26 36 vvcurveto
          181 callgsubr
          hvcurveto
          4 vlineto
          45 20 18 65 vhcurveto
          51 callsubr
          157 -246 159 callsubr
          33 28 3 7 22 vhcurveto
          -187 255 callsubr
          endchar
        </CharString>
        <CharString name="dvDD_YA">
          481 193 -5 rmoveto
          221 callsubr
          43 vlineto
          75 -45 41 -95 vhcurveto
          -17 hlineto
          -75 -20 29 45 hvcurveto
          41 61 callgsubr
          300 hlineto
          66 13 -30 -45 hvcurveto
          -18 -4 callgsubr
          -911 -40 298 150 callsubr
          430 132 rmoveto
          -101 -37 40 86 hvcurveto
          1 vlineto
          80 54 33 83 hvcurveto
          18 270 callsubr
          vhcurveto
          -172 99 423 162 callgsubr
          endchar
        </CharString>
        <CharString name="dvDDxA">
          17 203 -165 rmoveto
          -107 callgsubr
          149 324 -56 callgsubr
          -10 43 42 -4 49 hhcurveto
          221 callsubr
          endchar
        </CharString>
        <CharString name="dvDH">
          -92 383 127 rmoveto
          -8 -28 -57 -13 -51 hhcurveto
          -82 -50 25 75 hvcurveto
          58 -29 callsubr
          -58 213 callsubr
          51 54 12 9 31 vhcurveto
          endchar
        </CharString>
        <CharString name="dvDHA">
          99 85 604 rmoveto
          175 callsubr
          -58 213 callsubr
          51 35 6 9 31 vhcurveto
          -1 callsubr
          -259 -40 hlineto
          endchar
        </CharString>
        <CharString name="dvDH_MA">
          479 557 73 callsubr
          -556 -40 224 241 callgsubr
          -20 3 -17 5 -15 vhcurveto
          -7 -30 -41 -7 -38 hhcurveto
          -82 -50 25 75 hvcurveto
          55 -29 callsubr
          -55 213 callsubr
          50 53 12 9 32 vhcurveto
          -17 20 31 -8 42 157 callgsubr
        </CharString>
        <CharString name="dvDH_NA">
          471 736 436 rmoveto
          -436 -104 callsubr
          -563 -40 418 234 callsubr
          -21 3 -18 7 -14 vhcurveto
          -8 -31 -43 -8 -37 hhcurveto
          -82 -50 25 75 hvcurveto
          58 -29 callsubr
          -58 213 callsubr
          50 56 14 9 32 vhcurveto
          -16 20 29 -8 37 -60 callgsubr
        </CharString>
        <CharString name="dvDH_N_YA">
          769 536 -24 callgsubr
          -22 4 -18 7 -15 vhcurveto
          -8 -33 -42 -6 -37 hhcurveto
          -82 -50 25 75 hvcurveto
          58 -29 callsubr
          -58 213 callsubr
          50 59 11 10 31 vhcurveto
          -15 21 28 -7 35 198 callgsubr
          176 -71 callgsubr
          49 hlineto
          55 43 -9 -41 hvcurveto
          -123 vlineto
          -92 callgsubr
          -831 -40 vlineto
          endchar
        </CharString>
        <CharString name="dvDH_R">
          -92 70 226 rmoveto
          229 callgsubr
          38 vlineto
          318 callsubr
          38 -29 callsubr
          endchar
        </CharString>
        <CharString name="dvDH_RA">
          99 364 141 rmoveto
          254 callsubr
          31 -72 callgsubr
          78 vlineto
          47 8 28 0 vhcurveto
          109 40 -258 113 callgsubr
          40 -145 vlineto
          endchar
        </CharString>
        <CharString name="dvDH_VA">
          328 593 491 -18 callgsubr
          -229 -40 105 hlineto
          0 -9 -25 -50 vvcurveto
          -53 -13 callgsubr
          -52 vlineto
          -102 77 -40 100 41 55 9 10 39 vhcurveto
          -23 25 38 -12 49 78 callgsubr
          -406 -40 261 vlineto
          -474 vmoveto
          -99 callsubr
          endchar
        </CharString>
        <CharString name="dvDH_YA">
          389 527 529 -81 callsubr
          -45 10 -34 16 -24 vhcurveto
          -10 -38 -51 -8 -38 -27 callsubr
          -229 -40 105 hlineto
          110 callsubr
        </CharString>
        <CharString name="dvD_BA">
          17 200 147 rmoveto
          32 52 6 4 16 hvcurveto
          -129 vlineto
          -9 -1 -8 -1 -8 vhcurveto
          -167 127 rlineto
          11 15 22 6 32 hhcurveto
          -145 117 rmoveto
          -45 18 -33 35 -19 vhcurveto
          -34 -21 -16 -35 -44 vvcurveto
          -39 vlineto
          -78 46 -47 98 98 42 47 78 vhcurveto
          308 -42 -137 vlineto
          -4 -23 -46 -6 -31 hhcurveto
          -75 -25 30 45 hvcurveto
          123 205 callsubr
          -442 311 callsubr
          39 vlineto
          12 2 11 3 10 vhcurveto
          173 -131 rlineto
          -15 -15 -25 -9 -39 hhcurveto
          endchar
        </CharString>
        <CharString name="dvD_BHA">
          89 217 -24 rmoveto
          13 -18 4 -25 -35 -26 -38 -27 -22 13 -12 18 -17 22 rcurveline
          -13 19 -4 24 35 26 46 33 rcurveline
          -47 258 rmoveto
          -79 57 -47 95 vhcurveto
          6 6 0 5 hhcurveto
          -110 -80 -53 74 -29 41 -45 3 -47 -35 rlinecurve
          -49 -34 -11 -44 29 -41 17 -21 rcurveline
          32 23 -16 23 -12 17 -2 22 34 25 rlinecurve
          33 24 19 -8 14 -18 53 -73 rcurveline
          -46 -34 -50 -37 -9 -45 29 -39 rlinecurve
          17 -23 29 -41 46 -7 52 36 rlinecurve
          50 38 7 46 -28 41 -43 59 rcurveline
          164 118 rlineto
          1 -117 42 258 -42 -99 hlineto
          -25 callsubr
          94 -21 callgsubr
          102 40 -519 -40 372 -100 -85 76 callsubr
          endchar
        </CharString>
        <CharString name="dvD_B_RA">
          17 200 207 rmoveto
          38 46 9 6 17 hvcurveto
          -107 vlineto
          -10 -1 -10 -2 -9 vhcurveto
          -165 105 rlineto
          10 15 22 6 30 hhcurveto
          -145 117 rmoveto
          -45 18 -33 35 -19 vhcurveto
          -33 -21 -16 -35 -44 vvcurveto
          -12 vlineto
          -78 45 -46 98 vhcurveto
          3 3 0 3 hhcurveto
          -114 -104 rlineto
          65 hlineto
          139 129 rlineto
          -75 41 405 -41 -82 vlineto
          -7 -20 -36 -8 -45 hhcurveto
          -75 -25 30 45 hvcurveto
          63 205 callsubr
          -355 311 callsubr
          12 vlineto
          12 2 12 4 10 vhcurveto
          170 -107 rlineto
          -14 -15 -24 -8 -38 hhcurveto
          endchar
        </CharString>
        <CharString name="dvD_DA">
          15 55 374 rmoveto
          -44 15 -33 32 -19 vhcurveto
          -32 -19 -15 -33 -44 vvcurveto
          -55 vlineto
          -75 56 -42 95 39 25 6 8 30 vhcurveto
          -91 42 228 -42 -95 vlineto
          -7 -25 -30 -7 -39 hhcurveto
          -75 -31 30 45 hvcurveto
          55 -21 callsubr
          85 42 -85 hlineto
          -75 -20 30 45 hvcurveto
          13 -37 callsubr
          -445 -40 300 -100 -85 76 callsubr
          endchar
        </CharString>
        <CharString name="dvD_DHA">
          146 186 203 rmoveto
          325 callsubr
          -88 -31 22 63 vhcurveto
          223 callgsubr
          14 38 -14 hlineto
          167 callsubr
          117 callsubr
          endchar
        </CharString>
        <CharString name="dvD_GA">
          15 55 243 rmoveto
          -62 35 -43 62 -15 vhcurveto
          -81 238 callsubr
          75 306 callsubr
          -287 42 448 -42 -119 91 callgsubr
          144 -37 callsubr
          -445 -40 300 -100 -85 76 callsubr
          endchar
        </CharString>
        <CharString name="dvD_GHA">
          146 166 -31 rmoveto
          -88 -31 22 63 hvcurveto
          223 callgsubr
          68 -96 hlineto
          325 callsubr
          vhcurveto
          172 108 rmoveto
          117 callsubr
          -50 -68 vlineto
          167 callsubr
          endchar
        </CharString>
        <CharString name="dvD_G_RA">
          17 342 -120 rmoveto
          458 -42 -130 91 callgsubr
          105 -37 callsubr
          -445 -40 300 -100 -85 76 callsubr
          -105 vlineto
          -62 35 -43 62 -15 vhcurveto
          -60 238 callsubr
          54 306 callsubr
          -121 vlineto
          -202 -205 rlineto
          59 hlineto
          40 41 rlineto
          75 75 29 36 0 vvcurveto
          -1 vlineto
          0 -1 -34 -28 vvcurveto
          -49 vlineto
          endchar
        </CharString>
        <CharString name="dvD_MA">
          224 335 136 rmoveto
          197 -43 -97 vlineto
          -4 -16 -38 -8 -43 hhcurveto
          -75 -28 30 45 hvcurveto
          88 -21 callgsubr
          172 -468 hlineto
          -40 vmoveto
          -96 -104 callsubr
          -654 -40 292 -100 -85 312 callgsubr
          -88 vlineto
          -75 53 -42 95 45 32 8 6 20 vhcurveto
          -145 43 45 vlineto
          endchar
        </CharString>
        <CharString name="dvD_NA">
          7 47 223 rmoveto
          -79 57 -47 95 vhcurveto
          287 callgsubr
          -100 -69 -61 -42 -1 -44 27 -34 rlinecurve
          19 -24 40 -5 0 vvcurveto
          33 26 rlineto
          0 -37 7 -15 18 vhcurveto
          -19 25 9 21 35 24 156 106 rcurveline
          -116 42 268 -42 -109 91 callgsubr
          164 207 callgsubr
        </CharString>
        <CharString name="dvD_R">
          5 435 -207 -11 callgsubr
          -338 440 25 callgsubr
          -437 -40 292 -100 -85 hlineto
          -95 -45 -42 -75 hvcurveto
          endchar
        </CharString>
        <CharString name="dvD_RA">
          5 47 233 25 callgsubr
          -437 -40 292 -100 -85 hlineto
          -95 -45 -42 -75 hvcurveto
          endchar
        </CharString>
        <CharString name="dvD_VA">
          17 202 -55 123 callsubr
          -447 -40 300 -100 -85 hlineto
          -95 -45 -42 -75 hvcurveto
          141 callgsubr
        </CharString>
        <CharString name="dvD_YA">
          84 494 644 rmoveto
          -514 -40 193 -80 hlineto
          -59 -53 -25 -75 hvcurveto
          -31 -13 callgsubr
          -15 vlineto
          -102 70 -29 99 50 41 8 7 34 vhcurveto
          -70 301 callgsubr
          -493 vlineto
          -7 -28 -48 -8 -48 hhcurveto
          -80 -45 15 75 hvcurveto
          15 vlineto
          45 21 30 76 vhcurveto
          30 42 -30 hlineto
          -75 1 -16 29 45 vvcurveto
          27 vlineto
          56 33 9 54 vhcurveto
          25 119 hlineto
          endchar
        </CharString>
        <CharString name="dvE">
          33 346 57 rmoveto
          -8 -23 -48 -12 -49 hhcurveto
          -80 -26 31 50 hvcurveto
          486 100 callgsubr
          -463 -40 95 -485 vlineto
          -85 53 -39 98 51 47 10 10 22 vhcurveto
          endchar
        </CharString>
        <CharString name="dvEcandra">
          33 324 832 5 callgsubr
          -25 -775 rmoveto
          -8 -23 -49 -12 -49 hhcurveto
          -72 -28 30 45 hvcurveto
          492 100 callgsubr
          -463 -40 95 -492 vlineto
          326 callgsubr
          endchar
        </CharString>
        <CharString name="dvEight">
          26 callsubr
        </CharString>
        <CharString name="dvEyelash">
          -151 -20 604 rmoveto
          354 40 -354 hlineto
          354 -321 rmoveto
          -157 hlineto
          -75 -40 -5 55 hvcurveto
          -42 -1 hlineto
          -84 62 -5 95 vhcurveto
          157 hlineto
          endchar
        </CharString>
        <CharString name="dvEyelash_HA">
          222 251 125 85 callgsubr
          -652 -40 509 -100 -98 hlineto
          214 callgsubr
          -13 -78 vlineto
          297 callgsubr
          83 hlineto
          8 -25 16 -17 25 -11 rrcurveto
          -38 -16 -19 -31 -46 vvcurveto
          endchar
        </CharString>
        <CharString name="dvEyelash_YA">
          281 419 529 rmoveto
          -69 callsubr
          -465 hlineto
          -5 -26 -42 -7 -69 callgsubr
          66 -61 callsubr
          -53 168 313 callgsubr
          -93 vlineto
          -61 -28 -14 -86 vhcurveto
          -74 hlineto
          297 callgsubr
          54 -68 hlineto
          -92 callgsubr
          -711 -40 vlineto
          endchar
        </CharString>
        <CharString name="dvFive">
          89 callsubr
        </CharString>
        <CharString name="dvFour">
          156 callgsubr
        </CharString>
        <CharString name="dvG">
          -138 181 604 rmoveto
          91 40 -292 64 callgsubr
          endchar
        </CharString>
        <CharString name="dvGA">
          86 496 644 rmoveto
          -516 64 callgsubr
          289 220 callsubr
        </CharString>
        <CharString name="dvGH">
          -106 384 125 rmoveto
          -5 -17 -68 -14 320 callsubr
          51 -72 callgsubr
          78 vlineto
          47 8 28 0 vhcurveto
          236 40 -385 201 callsubr
          50 62 13 6 23 vhcurveto
          endchar
        </CharString>
        <CharString name="dvGHA">
          99 509 644 rmoveto
          -529 -40 104 hlineto
          67 callsubr
        </CharString>
        <CharString name="dvGH_MA">
          479 249 106 rmoveto
          259 callsubr
          51 -72 callgsubr
          78 vlineto
          47 8 28 0 vhcurveto
          428 241 callgsubr
          -22 3 -19 7 -15 vhcurveto
          -6 -31 -44 -7 -34 hhcurveto
          308 69 -75 callgsubr
          -909 201 callsubr
          48 63 13 6 26 vhcurveto
          -14 21 29 -7 39 157 callgsubr
        </CharString>
        <CharString name="dvGH_NA">
          471 249 106 rmoveto
          259 callsubr
          51 -72 callgsubr
          78 vlineto
          47 8 28 0 vhcurveto
          607 138 callsubr
          -191 vlineto
          -22 4 -19 7 -16 vhcurveto
          -5 -31 -45 -7 -34 hhcurveto
          487 330 rmoveto
          -436 -104 callsubr
          -901 -40 104 vlineto
          39 callgsubr
          -51 257 callgsubr
          49 67 13 6 24 vhcurveto
          -14 20 28 -7 34 -60 callgsubr
        </CharString>
        <CharString name="dvGH_R">
          -102 378 133 rmoveto
          318 callsubr
          33 -72 callgsubr
          78 vlineto
          47 8 28 0 vhcurveto
          254 40 -403 70 callgsubr
          -33 vlineto
          229 callgsubr
          endchar
        </CharString>
        <CharString name="dvGH_RA">
          99 509 644 rmoveto
          -529 113 callgsubr
          vlineto
          -145 hmoveto
          -463 vlineto
          254 callsubr
          31 -72 callgsubr
          78 vlineto
          47 8 28 0 vhcurveto
          endchar
        </CharString>
        <CharString name="dvGH_YA">
          389 249 136 rmoveto
          259 callsubr
          41 -72 callgsubr
          58 vlineto
          47 8 28 0 vhcurveto
          345 hlineto
          64 callsubr
          -44 9 -33 16 -24 vhcurveto
          -8 -37 -50 -8 -37 hhcurveto
          278 393 -5 callsubr
          -819 -40 104 vlineto
          259 callgsubr
          -58 -13 callgsubr
          -41 257 callgsubr
          49 69 12 11 37 vhcurveto
          -25 35 48 -8 49 210 callgsubr
          endchar
        </CharString>
        <CharString name="dvG_BA">
          278 546 172 callgsubr
          -190 vlineto
          86 callgsubr
          -708 186 callsubr
          137 callgsubr
          289 365 vlineto
          -89 -488 rmoveto
          -20 callsubr
        </CharString>
        <CharString name="dvG_BHA">
          442 181 604 rmoveto
          78 40 -279 64 callgsubr
          339 -140 62 callsubr
          40 vmoveto
          178 callsubr
          -101 vlineto
          -75 37 -37 90 90 37 37 75 vhcurveto
          -52 callgsubr
        </CharString>
        <CharString name="dvG_BH_YA">
          726 181 604 rmoveto
          71 40 -272 64 callgsubr
          319 -140 -90 callsubr
          116 -79 callsubr
          142 hmoveto
          -24 callsubr
          -24 5 -32 -8 callgsubr
          -5 31 25 289 callgsubr
          -90 -37 -35 -75 hvcurveto
          -116 -62 callsubr
          186 vlineto
          319 168 -107 callsubr
          endchar
        </CharString>
        <CharString name="dvG_DA">
          267 307 203 rmoveto
          -67 callgsubr
          -697 64 callgsubr
          289 351 -100 -85 312 callgsubr
          endchar
        </CharString>
        <CharString name="dvG_DHA">
          360 346 604 rmoveto
          175 callsubr
          -58 213 callsubr
          51 35 6 9 31 vhcurveto
          -1 callsubr
          -520 64 callgsubr
          289 vlineto
          endchar
        </CharString>
        <CharString name="dvG_DH_VA">
          589 854 491 -18 callgsubr
          -490 64 callgsubr
          289 165 vlineto
          0 -9 -25 -50 vvcurveto
          -53 -13 callgsubr
          -52 vlineto
          -102 77 -40 100 41 55 9 10 39 vhcurveto
          -23 25 38 -12 49 78 callgsubr
          -406 -40 261 vlineto
          -474 vmoveto
          -99 callsubr
          endchar
        </CharString>
        <CharString name="dvG_DH_YA">
          650 788 529 -81 callsubr
          -45 10 -34 16 -24 vhcurveto
          -10 -38 -51 -8 -38 -27 callsubr
          -490 64 callgsubr
          289 165 vlineto
          110 callsubr
        </CharString>
        <CharString name="dvG_GA">
          316 726 644 rmoveto
          -746 64 callgsubr
          289 185 -289 137 callgsubr
          289 220 callsubr
        </CharString>
        <CharString name="dvG_GHA">
          360 770 644 rmoveto
          -790 64 callgsubr
          289 164 vlineto
          67 callsubr
        </CharString>
        <CharString name="dvG_JA">
          401 516 264 callsubr
          -831 64 callgsubr
          289 485 -125 -316 -40 113 vlineto
          -83 callgsubr
          -197 -35 callsubr
          endchar
        </CharString>
        <CharString name="dvG_LA">
          481 316 146 rmoveto
          -90 -88 callsubr
          -911 186 callsubr
          137 callgsubr
          289 565 -144 vlineto
          -31 callgsubr
          endchar
        </CharString>
        <CharString name="dvG_MA">
          427 505 73 callsubr
          -857 64 callgsubr
          289 324 -178 -82 vlineto
          -65 callsubr
          142 vlineto
          endchar
        </CharString>
        <CharString name="dvG_NA">
          434 699 436 rmoveto
          -436 -104 callsubr
          -864 186 callsubr
          137 callgsubr
          289 518 101 callsubr
        </CharString>
        <CharString name="dvG_NNA">
          474 591 604 rmoveto
          149 -604 44 -99 callgsubr
          -904 64 callgsubr
          289 140 -359 vlineto
          44 callsubr
          -45 359 rmoveto
          195 callgsubr
        </CharString>
        <CharString name="dvG_N_YA">
          722 489 -24 callgsubr
          -75 43 -37 80 80 43 37 75 vhcurveto
          176 -71 callgsubr
          49 hlineto
          55 43 -9 -41 hvcurveto
          -123 vlineto
          -92 callgsubr
          -1152 186 callsubr
          137 callgsubr
          289 vlineto
          endchar
        </CharString>
        <CharString name="dvG_R">
          95 callsubr
          endchar
        </CharString>
        <CharString name="dvG_RA">
          89 callgsubr
          endchar
        </CharString>
        <CharString name="dvG_R_YA">
          362 500 529 -81 callsubr
          -4 0 -4 -3 vvcurveto
          -238 -242 rlineto
          61 hlineto
          110 113 36 37 24 26 14 17 rlinecurve
          -87 24 77 -21 80 -13 callsubr
          -792 186 callsubr
          137 callgsubr
          289 vlineto
          endchar
        </CharString>
        <CharString name="dvG_SA">
          461 611 11 -89 callgsubr
          171 -297 -104 callsubr
          -891 64 callgsubr
          289 352 vlineto
          0 8 -28 -47 vvcurveto
          -146 vlineto
          -45 -20 -35 -75 -26 -27 5 5 -22 vhcurveto
          137 -45 -317 80 callsubr
        </CharString>
        <CharString name="dvG_VA">
          291 556 289 callsubr
          -182 vlineto
          -52 callsubr
          -721 186 callsubr
          137 callgsubr
          289 375 vlineto
          -474 vmoveto
          -99 callsubr
          endchar
        </CharString>
        <CharString name="dvG_YA">
          362 500 529 88 callsubr
          -792 186 callsubr
          137 callgsubr
          289 vlineto
          endchar
        </CharString>
        <CharString name="dvGx">
          -138 181 604 rmoveto
          91 40 -292 64 callgsubr
          -104 -272 -91 callsubr
        </CharString>
        <CharString name="dvGxA">
          86 99 37 rmoveto
          -107 callgsubr
          397 607 rmoveto
          -516 64 callgsubr
          289 220 callsubr
        </CharString>
        <CharString name="dvGx_R">
          95 callsubr
          112 -417 -91 callsubr
        </CharString>
        <CharString name="dvGx_RA">
          89 callgsubr
          119 -96 -91 callsubr
        </CharString>
        <CharString name="dvH">
          22 51 125 85 callsubr
          -452 83 callsubr
          288 -392 -11 callgsubr
          endchar
        </CharString>
        <CharString name="dvHA">
          22 51 125 85 callsubr
          -452 83 callsubr
          endchar
        </CharString>
        <CharString name="dvHA_mU">
          22 276 -5 rmoveto
          60 6 -25 -39 -39 -5 -25 -65 hvcurveto
          319 callgsubr
          -65 hlineto
          274 callgsubr
          -29 33 -82 hvcurveto
          -62 hlineto
          -94 -24 39 49 -54 callgsubr
          -452 83 callsubr
          -65 vlineto
          -79 49 -51 114 vhcurveto
          endchar
        </CharString>
        <CharString name="dvHA_mUU">
          22 51 125 rmoveto
          -55 24 -39 52 -18 vhcurveto
          -27 -14 -11 -24 -44 vvcurveto
          -73 27 -35 84 vhcurveto
          92 44 -92 hlineto
          -60 -6 25 39 39 5 25 65 hvcurveto
          304 callsubr
          58 hlineto
          -129 155 rlineto
          35 -30 -28 22 -70 hhcurveto
          -18 hlineto
          -94 -24 39 49 -54 callgsubr
          -452 83 callsubr
          endchar
        </CharString>
        <CharString name="dvHA_mvR">
          57 96 202 rmoveto
          45 25 27 75 vhcurveto
          114 hlineto
          45 25 -6 -45 -45 -25 -5 -45 hvcurveto
          -7 hlineto
          -75 -40 -22 -70 -70 45 -22 85 36 41 6 9 36 hvcurveto
          40 vlineto
          -8 -37 -39 -5 -37 hhcurveto
          -55 -30 5 45 45 25 5 45 hvcurveto
          7 hlineto
          75 40 22 70 70 -40 23 -75 hvcurveto
          -116 hlineto
          191 callsubr
          1 vlineto
          45 17 28 75 vhcurveto
          183 142 93 40 -487 -40 349 -100 -138 hlineto
          214 callgsubr
          -1 -12 callsubr
          -202 vlineto
          -79 58 -51 114 302 callsubr
          vhcurveto
          41 vlineto
          -11 -36 -32 -4 -53 hhcurveto
          -94 -33 35 53 hvcurveto
          endchar
        </CharString>
        <CharString name="dvH_LA">
          588 423 146 rmoveto
          -90 -88 callsubr
          -650 -40 505 -144 vlineto
          -31 callgsubr
          endchar
        </CharString>
        <CharString name="dvH_MA">
          214 348 176 rmoveto
          24 237 callgsubr
          142 135 -428 hlineto
          -40 vmoveto
          -136 -104 callsubr
          -644 -40 319 -100 -98 vlineto
          214 callgsubr
          -3 -12 callsubr
          -75 292 callsubr
          75 vlineto
          45 25 27 75 vhcurveto
          19 hlineto
          70 10 -27 -45 hvcurveto
          -119 43 55 vlineto
          endchar
        </CharString>
        <CharString name="dvH_NA">
          532 409 366 rmoveto
          -62 -215 vlineto
          191 callsubr
          13 vlineto
          45 17 28 75 vhcurveto
          143 142 463 138 callsubr
          388 70 rmoveto
          -436 -104 callsubr
          -962 -40 309 -100 -98 vlineto
          214 callgsubr
          -13 -12 callsubr
          -65 vlineto
          53 callgsubr
          213 -87 131 callgsubr
        </CharString>
        <CharString name="dvH_NNA">
          604 451 604 rmoveto
          -300 -257 vlineto
          191 callsubr
          13 vlineto
          45 17 28 75 vhcurveto
          143 142 hlineto
          387 hmoveto
          149 -604 44 -99 callgsubr
          -1034 83 callsubr
          -65 vlineto
          53 callgsubr
          255 -17 hlineto
          44 callsubr
          -45 359 rmoveto
          195 callgsubr
        </CharString>
        <CharString name="dvH_R">
          15 callsubr
          299 -392 -11 callgsubr
          endchar
        </CharString>
        <CharString name="dvH_RA">
          15 callsubr
          endchar
        </CharString>
        <CharString name="dvH_VA">
          403 668 289 callsubr
          -182 vlineto
          -52 callsubr
          -460 -40 315 vlineto
          -474 vmoveto
          -99 callsubr
          endchar
        </CharString>
        <CharString name="dvH_YA">
          198 334 604 rmoveto
          129 -451 hlineto
          -5 -19 -29 -5 -37 hhcurveto
          -49 hlineto
          6 11 3 13 15 vvcurveto
          28 237 callgsubr
          hlineto
          -89 -329 rmoveto
          -41 133 vlineto
          41 28 5 5 16 hvcurveto
          -112 -104 callsubr
          -628 -40 309 -90 -98 vlineto
          214 callgsubr
          -3 -12 callsubr
          -85 292 callsubr
          85 vlineto
          45 25 27 75 vhcurveto
          19 322 callsubr
          vlineto
          -25 -11 -12 -37 vhcurveto
          endchar
        </CharString>
        <CharString name="dvI">
          3 97 171 rmoveto
          -42 -232 42 105 hlineto
          -6 28 32 -3 38 hhcurveto
          106 46 38 78 hvcurveto
          42 vlineto
          75 -45 41 -95 vhcurveto
          -22 hlineto
          -75 -20 29 45 hvcurveto
          6 302 callgsubr
          142 95 40 -433 -40 293 -100 -88 284 callsubr
          -6 152 callgsubr
          22 hlineto
          75 20 -29 -45 hvcurveto
          -42 vlineto
          -48 -32 -26 -75 -39 -29 2 6 -30 vhcurveto
          endchar
        </CharString>
        <CharString name="dvII">
          3 313 644 13 callsubr
        </CharString>
        <CharString name="dvII_Anusvara">
          3 376 708 rmoveto
          -107 callgsubr
          -63 -64 13 callsubr
        </CharString>
        <CharString name="dvJ">
          -55 423 644 rmoveto
          -443 -40 443 hlineto
          1 -125 rmoveto
          -325 -40 113 hlineto
          -100 callsubr
          167 hlineto
          endchar
        </CharString>
        <CharString name="dvJA">
          150 265 364 99 callsubr
        </CharString>
        <CharString name="dvJH">
          -3 332 141 rmoveto
          52 vlineto
          212 callsubr
          188 41 -299 hlineto
          151 callsubr
          154 40 -507 -40 308 -99 -96 hlineto
          41 callgsubr
          endchar
        </CharString>
        <CharString name="dvJHA">
          198 195 267 rmoveto
          260 callgsubr
          -50 vlineto
          -45 -26 -31 4 callgsubr
          40 43 75 hvcurveto
          50 282 callgsubr
          -268 -104 callsubr
          -628 -40 300 -99 -88 hlineto
          308 callsubr
          122 callsubr
        </CharString>
        <CharString name="dvJH_MA">
          579 448 316 rmoveto
          -7 -260 vlineto
          151 callsubr
          324 243 callsubr
          209 -141 -75 callgsubr
          -1009 -40 308 -99 -96 hlineto
          41 callgsubr
          52 vlineto
          212 callsubr
          149 -93 hlineto
          36 callsubr
        </CharString>
        <CharString name="dvJH_NA">
          586 463 366 rmoveto
          -57 -275 vlineto
          151 callsubr
          518 138 callsubr
          388 70 rmoveto
          -436 -104 callsubr
          -1016 -40 308 -99 -96 vlineto
          41 callgsubr
          52 282 callgsubr
          -93 131 callgsubr
        </CharString>
        <CharString name="dvJH_R">
          34 516 183 rmoveto
          -260 -272 rlineto
          55 hlineto
          118 123 rlineto
          38 40 49 62 0 vvcurveto
          -179 57 rmoveto
          212 callsubr
          212 41 -322 hlineto
          -73 -19 29 45 hvcurveto
          7 61 callgsubr
          171 141 148 40 -536 -40 343 -99 -126 hlineto
          299 callsubr
          43 -41 95 vhcurveto
          5 242 callgsubr
          -26 -31 4 callgsubr
          40 43 75 hvcurveto
          endchar
        </CharString>
        <CharString name="dvJH_RA">
          223 337 193 rmoveto
          212 callsubr
          184 -114 hlineto
          -232 -243 rlineto
          55 hlineto
          118 123 rlineto
          38 40 24 37 0 vvcurveto
          -1 vlineto
          0 -3 -20 -29 vvcurveto
          -61 -104 callsubr
          -653 -40 343 -99 -126 vlineto
          299 callsubr
          45 -41 95 vhcurveto
          3 283 callsubr
          -50 vlineto
          -45 -26 -31 4 callgsubr
          40 43 75 hvcurveto
          31 320 rmoveto
          141 120 -295 -294 vlineto
          -73 1 -19 28 45 vvcurveto
          7 61 callgsubr
          endchar
        </CharString>
        <CharString name="dvJH_YA">
          514 473 381 rmoveto
          -72 -285 vlineto
          151 callsubr
          266 hlineto
          -83 callgsubr
          -73 vlineto
          -61 -28 -14 -86 vhcurveto
          159 188 callgsubr
          -549 -421 rmoveto
          -8 31 23 -2 35 hhcurveto
          106 34 41 75 hvcurveto
          52 vlineto
          212 callsubr
          174 -15 hlineto
          -92 callgsubr
          -944 -40 308 -99 -96 vlineto
          308 callsubr
          4 242 callgsubr
          -20 -29 -75 -28 -29 2 9 -32 vhcurveto
          76 -42 -209 42 vlineto
          endchar
        </CharString>
        <CharString name="dvJ_BA">
          362 630 258 callsubr
          -31 10 -49 hhcurveto
          -42 -34 -9 -17 -24 hvcurveto
          -342 -40 113 hlineto
          -100 callsubr
          149 hlineto
          -7 -16 -4 -18 -20 vvcurveto
          -190 vlineto
          86 callgsubr
          -792 -40 650 vlineto
          -89 -488 rmoveto
          -20 callsubr
        </CharString>
        <CharString name="dvJ_DA">
          355 395 203 rmoveto
          -67 callgsubr
          -785 -40 640 -100 -85 hlineto
          -43 -33 -9 -16 -23 hvcurveto
          -337 -40 113 hlineto
          -100 callsubr
          147 hlineto
          -6 -15 -3 -17 -20 vvcurveto
          endchar
        </CharString>
        <CharString name="dvJ_DDA">
          351 686 201 callgsubr
          -781 -40 632 -99 -83 hlineto
          -47 -35 -10 -19 -23 hvcurveto
          3 -325 -40 113 vlineto
          -100 callsubr
          140 hlineto
          -5 -14 -3 -16 -19 68 callgsubr
        </CharString>
        <CharString name="dvJ_JA">
          515 630 364 31 callsubr
        </CharString>
        <CharString name="dvJ_JHA">
          530 527 267 rmoveto
          260 callgsubr
          -50 vlineto
          -45 -26 -31 4 callgsubr
          40 43 75 hvcurveto
          50 282 callgsubr
          -268 -104 callsubr
          -960 -40 632 -99 -88 hlineto
          -45 -33 -9 -17 -23 hvcurveto
          -324 -40 113 hlineto
          -100 callsubr
          135 hlineto
          -5 -14 -3 -16 -19 vvcurveto
          -7 vlineto
          -75 44 -41 95 vhcurveto
          122 callsubr
        </CharString>
        <CharString name="dvJ_J_NYA">
          569 424 479 rmoveto
          -325 -40 113 hlineto
          -100 callsubr
          167 hlineto
          410 165 rmoveto
          -125 -326 -40 121 vlineto
          2 callsubr
          159 149 callgsubr
          -999 -40 hlineto
          endchar
        </CharString>
        <CharString name="dvJ_J_VA">
          740 1005 160 callsubr
          -41 -33 -9 -17 -24 hvcurveto
          -709 56 callsubr
          151 hlineto
          -9 -17 -4 -19 -22 vvcurveto
          -182 vlineto
          -52 callsubr
          -1170 -40 1025 vlineto
          -474 vmoveto
          -99 callsubr
          endchar
        </CharString>
        <CharString name="dvJ_J_YA">
          811 949 52 callgsubr
          -69 -3 vhcurveto
          72 -38 26 -83 vhcurveto
          -592 56 callsubr
          65 hlineto
          68 15 -11 -50 hvcurveto
          -125 vlineto
          -92 callgsubr
          -1241 -40 vlineto
          endchar
        </CharString>
        <CharString name="dvJ_KA">
          524 610 604 rmoveto
          -479 vlineto
          -105 callsubr
          -41 -32 -9 -16 -22 hvcurveto
          -338 -40 113 hlineto
          -100 callsubr
          148 hlineto
          -7 -15 -3 -17 -20 vvcurveto
          -72 callsubr
          45 453 vlineto
          -94 callgsubr
          279 40 -954 -40 vlineto
          endchar
        </CharString>
        <CharString name="dvJ_MA">
          511 634 165 callsubr
          -187 -251 -86 callgsubr
          187 -386 rmoveto
          -104 callsubr
          -941 -40 609 324 callgsubr
          -16 -15 -1 -3 -13 hvcurveto
          41 -12 -46 16 -66 hhcurveto
          -240 -40 113 hlineto
          -100 callsubr
          78 hlineto
          49 29 -8 -22 10 hvcurveto
          -30 -18 -13 -30 -45 115 callsubr
        </CharString>
        <CharString name="dvJ_NA">
          534 799 436 rmoveto
          -436 -104 callsubr
          -964 -40 819 236 callgsubr
          -46 -33 -11 -24 -21 hvcurveto
          25 -18 -35 13 -50 hhcurveto
          -232 -40 113 hlineto
          -100 callsubr
          70 hlineto
          64 20 -22 -42 hvcurveto
          0 vlineto
          -3 0 -3 -3 40 callsubr
        </CharString>
        <CharString name="dvJ_NY">
          -8 482 644 rmoveto
          -502 -40 502 hlineto
          -125 vmoveto
          -339 -40 121 hlineto
          2 callsubr
          172 hlineto
          endchar
        </CharString>
        <CharString name="dvJ_NYA">
          204 469 604 rmoveto
          -125 -326 -40 121 vlineto
          2 callsubr
          159 149 callgsubr
          -634 -40 hlineto
          endchar
        </CharString>
        <CharString name="dvJ_NY_YA">
          500 264 439 rmoveto
          2 callsubr
          66 hlineto
          57 26 -5 -50 hvcurveto
          -131 vlineto
          -138 78 -30 96 75 38 19 28 19 vhcurveto
          -132 -104 callsubr
          -930 -40 526 vlineto
          69 18 -30 -45 hvcurveto
          235 callgsubr
          -237 -40 hlineto
          361 -186 rmoveto
          106 -61 callsubr
          53 232 callsubr
        </CharString>
        <CharString name="dvJ_R">
          -58 128 66 callsubr
          endchar
        </CharString>
        <CharString name="dvJ_RA">
          151 418 57 callgsubr
          endchar
        </CharString>
        <CharString name="dvJ_TA">
          386 406 30 callgsubr
          -816 -40 671 -114 vlineto
          152 callsubr
          -42 -33 -9 -17 -24 hvcurveto
          -353 -40 113 hlineto
          -100 callsubr
          161 hlineto
          -8 -16 -4 -19 -21 vvcurveto
          endchar
        </CharString>
        <CharString name="dvJ_TTA">
          340 450 219 callsubr
          -770 -40 635 -100 -70 hlineto
          -43 -33 -9 -16 -23 hvcurveto
          -347 -40 113 hlineto
          -100 callsubr
          157 hlineto
          -6 -15 -3 -17 -20 200 callgsubr
        </CharString>
        <CharString name="dvJ_VA">
          375 640 160 callsubr
          -41 -33 -9 -17 -24 hvcurveto
          -344 -40 113 hlineto
          -100 callsubr
          151 hlineto
          -9 -17 -4 -19 -22 vvcurveto
          -182 vlineto
          -52 callsubr
          -805 -40 660 vlineto
          -474 vmoveto
          -99 callsubr
          endchar
        </CharString>
        <CharString name="dvJ_YA">
          446 584 529 rmoveto
          -69 callsubr
          -465 hlineto
          -5 -26 -42 -7 -69 callgsubr
          106 -61 callsubr
          -53 128 313 callgsubr
          235 callgsubr
          -227 -40 113 hlineto
          -100 callsubr
          65 hlineto
          57 26 -5 -50 hvcurveto
          -131 vlineto
          -92 callgsubr
          -876 -40 vlineto
          endchar
        </CharString>
        <CharString name="dvJx">
          -55 77 38 callsubr
          346 740 rmoveto
          -443 -40 443 hlineto
          1 -125 rmoveto
          -325 -40 113 hlineto
          -100 callsubr
          167 hlineto
          endchar
        </CharString>
        <CharString name="dvJxA">
          150 32 -76 rmoveto
          -107 callgsubr
          233 440 99 callsubr
        </CharString>
        <CharString name="dvJx_JxA">
          515 26 hmoveto
          266 callsubr
          365 -66 rmoveto
          -107 callgsubr
          239 430 31 callsubr
        </CharString>
        <CharString name="dvJx_R">
          -24 148 66 callsubr
          -412 -454 -91 callsubr
        </CharString>
        <CharString name="dvJx_RA">
          170 437 57 callgsubr
          -243 -446 -91 callsubr
        </CharString>
        <CharString name="dvJx_YA">
          446 26 -76 rmoveto
          -107 callgsubr
          558 605 rmoveto
          -69 callsubr
          -465 hlineto
          -5 -26 -42 -7 -69 callgsubr
          106 -61 callsubr
          -53 128 313 callgsubr
          235 callgsubr
          -227 -40 113 hlineto
          -100 callsubr
          65 hlineto
          57 26 -5 -50 hvcurveto
          -131 vlineto
          -92 callgsubr
          -876 -40 vlineto
          endchar
        </CharString>
        <CharString name="dvK">
          5 310 452 40 callgsubr
        </CharString>
        <CharString name="dvKA">
          179 265 604 16 callsubr
          endchar
        </CharString>
        <CharString name="dvKH">
          121 28 callsubr
          -45 136 rmoveto
          -136 vlineto
          -85 40 -32 90 90 40 32 85 vhcurveto
          136 116 callgsubr
          45 -376 rmoveto
          -85 callgsubr
          334 40 -651 21 callsubr
          endchar
        </CharString>
        <CharString name="dvKHA">
          324 374 50 callgsubr
          -754 -40 272 vlineto
          0 13 -28 -47 vvcurveto
          -122 vlineto
          -61 -25 -37 -72 -25 -29 4 3 -19 vhcurveto
          124 -45 -268 vlineto
          -28 callsubr
        </CharString>
        <CharString name="dvKH_KHA">
          863 28 callsubr
          709 -65 48 callsubr
          -215 -201 -3 callgsubr
          -1293 -40 272 vlineto
          -100 callgsubr
          494 hlineto
          0 13 -55 callgsubr
          -122 vlineto
          -61 -25 -37 -72 -25 -29 4 3 -19 vhcurveto
          71 116 callgsubr
          -136 vlineto
          -85 40 -32 90 37 303 callgsubr
          -118 10 99 -37 117 hhcurveto
          55 53 8 7 34 hvcurveto
          -85 callgsubr
          292 -110 hlineto
          6 -28 -29 4 -28 213 callgsubr
          endchar
        </CharString>
        <CharString name="dvKH_MA">
          720 798 73 callsubr
          -1150 -40 272 hlineto
          -100 callgsubr
          501 324 callgsubr
          -36 -27 -6 -11 -20 hvcurveto
          61 -8 -40 34 -81 hhcurveto
          75 callsubr
          37 29 5 13 20 vhcurveto
          -60 8 38 -29 80 199 callgsubr
          211 142 vlineto
          -566 -135 -59 callgsubr
          endchar
        </CharString>
        <CharString name="dvKH_NA">
          712 28 callsubr
          558 185 rmoveto
          -436 -104 callsubr
          -1142 -40 272 vlineto
          -100 callgsubr
          680 227 callsubr
          hlineto
          -40 -30 -9 -18 -21 hvcurveto
          36 -18 -38 19 -61 hhcurveto
          75 callsubr
          37 29 5 13 21 vhcurveto
          -60 8 42 -29 71 -60 callgsubr
        </CharString>
        <CharString name="dvKH_R">
          123 -6 callsubr
          endchar
        </CharString>
        <CharString name="dvKH_RA">
          324 -10 callsubr
          endchar
        </CharString>
        <CharString name="dvKH_SHA">
          716 419 251 rmoveto
          94 vlineto
          45 15 30 70 70 15 -30 -45 vhcurveto
          -94 325 callgsubr
          -240 vmoveto
          -85 callgsubr
          242 40 -559 42 callgsubr
          -26 -26 4 11 -43 vhcurveto
          28 116 callgsubr
          -94 vlineto
          -85 40 -32 90 36 303 callgsubr
          -18 22 callsubr
        </CharString>
        <CharString name="dvKH_TA">
          569 589 115 -9 callgsubr
          -170 100 -59 callgsubr
          endchar
        </CharString>
        <CharString name="dvKH_VA">
          569 28 callsubr
          415 -121 22 callgsubr
          42 vmoveto
          98 callgsubr
          -55 -41 -17 -29 -24 hvcurveto
          29 -20 -36 16 -55 hhcurveto
          75 callsubr
          40 30 6 15 21 vhcurveto
          -52 17 47 -29 76 78 callgsubr
          -999 -40 272 vlineto
          -100 callgsubr
          537 hlineto
          endchar
        </CharString>
        <CharString name="dvKH_YA">
          630 28 callsubr
          349 278 -73 callgsubr
          -22 -17 -67 -3 vhcurveto
          6 116 callgsubr
          -136 vlineto
          -85 40 -32 90 48 34 9 22 21 vhcurveto
          -64 31 68 -16 71 -13 callsubr
          -1060 -40 272 vlineto
          -100 callgsubr
          endchar
        </CharString>
        <CharString name="dvKHx">
          123 32 38 callsubr
          387 347 -59 callgsubr
          -45 136 rmoveto
          -136 vlineto
          -85 40 -32 90 90 40 32 85 vhcurveto
          136 116 callgsubr
          45 -376 rmoveto
          -85 callgsubr
          334 40 -651 21 callsubr
          endchar
        </CharString>
        <CharString name="dvKHxA">
          324 32 38 callsubr
          342 347 -3 callgsubr
          -754 -40 272 vlineto
          0 13 -28 -47 vvcurveto
          -122 vlineto
          -61 -25 -37 -72 -25 -29 4 3 -19 vhcurveto
          124 -45 -268 vlineto
          -28 callsubr
        </CharString>
        <CharString name="dvKHx_MA">
          720 28 callsubr
          -387 -347 rmoveto
          -107 callgsubr
          766 271 -75 callgsubr
          -1150 -40 272 hlineto
          -100 callgsubr
          501 324 callgsubr
          -36 -27 -6 -11 -20 hvcurveto
          61 -8 -40 34 -81 hhcurveto
          75 callsubr
          37 29 5 13 20 vhcurveto
          -60 8 38 -29 80 157 callgsubr
        </CharString>
        <CharString name="dvKHx_R">
          122 -6 callsubr
          318 65 -91 callsubr
        </CharString>
        <CharString name="dvKHx_RA">
          329 -10 callsubr
          -113 -512 -91 callsubr
        </CharString>
        <CharString name="dvKHx_SA">
          724 32 38 callsubr
          842 107 -89 callgsubr
          171 -297 -104 callsubr
          -1154 -40 272 hlineto
          -100 callgsubr
          499 hlineto
          -94 callsubr
          74 116 callgsubr
          -136 vlineto
          -85 40 -32 90 36 303 callgsubr
          -18 -38 callgsubr
          -570 -353 -59 callgsubr
          endchar
        </CharString>
        <CharString name="dvKHx_SHA">
          716 419 251 rmoveto
          106 vlineto
          45 15 30 70 70 15 -30 -45 vhcurveto
          -106 325 callgsubr
          -240 vmoveto
          -85 callgsubr
          228 40 -545 42 callgsubr
          -25 -38 6 7 -32 vhcurveto
          42 116 callgsubr
          -106 vlineto
          -85 40 -32 90 36 303 callgsubr
          -18 vlineto
          -90 72 -48 95 170 callgsubr
          vhcurveto
          -22 callsubr
          140 vlineto
          -9 30 29 -4 36 hhcurveto
          95 45 47 75 hvcurveto
          -837 -478 -91 callsubr
        </CharString>
        <CharString name="dvKHx_TA">
          569 32 38 callsubr
          387 347 -59 callgsubr
          170 -136 -9 callgsubr
          endchar
        </CharString>
        <CharString name="dvKHx_VA">
          570 32 38 callsubr
          387 347 -59 callgsubr
          416 -121 22 callgsubr
          42 vmoveto
          98 callgsubr
          -56 -40 -17 -29 -24 hvcurveto
          29 -20 -37 16 -55 hhcurveto
          75 callsubr
          41 30 7 14 21 vhcurveto
          -52 16 48 -29 76 78 callgsubr
          -1000 -40 272 vlineto
          -100 callgsubr
          538 hlineto
          endchar
        </CharString>
        <CharString name="dvKHx_YA">
          631 32 38 callsubr
          387 347 -59 callgsubr
          350 278 -39 callsubr
          -67 -3 vhcurveto
          6 116 callgsubr
          -136 vlineto
          -85 40 -32 90 48 34 9 22 21 vhcurveto
          -64 32 68 -16 71 -13 callsubr
          -1061 -40 272 vlineto
          -100 callgsubr
          endchar
        </CharString>
        <CharString name="dvK_CA">
          512 310 hmoveto
          452 vlineto
          -73 callsubr
          -26 78 vlineto
          0 -10 -32 -63 vvcurveto
          -78 138 callgsubr
          -942 -18 callsubr
          419 106 rmoveto
          286 callsubr
          78 vlineto
          62 10 33 0 vhcurveto
          121 40 -199 hlineto
          62 -4 -30 42 -93 211 callgsubr
          111 467 -483 vlineto
          -11 -33 -25 -4 -35 hhcurveto
          endchar
        </CharString>
        <CharString name="dvK_DA">
          434 145 callgsubr
          389 -100 -85 296 callsubr
          82 -301 rmoveto
          -67 callgsubr
          -864 -60 callsubr
          endchar
        </CharString>
        <CharString name="dvK_JA">
          634 519 94 rmoveto
          -43 vlineto
          -6 23 23 -4 41 hhcurveto
          95 48 48 78 hvcurveto
          197 vlineto
          49 callgsubr
          -1064 -60 callsubr
          -98 45 98 34 callgsubr
          589 250 callgsubr
          -34 -27 4 7 -26 vhcurveto
          endchar
        </CharString>
        <CharString name="dvK_KA">
          603 611 115 -42 callgsubr
        </CharString>
        <CharString name="dvK_KHA">
          748 798 50 callgsubr
          -1178 -40 285 -479 vlineto
          -103 callgsubr
          -214 vlineto
          -37 callgsubr
          -85 callgsubr
          292 -110 hlineto
          6 -28 -29 4 -28 213 callgsubr
          215 -201 48 callsubr
          -421 -143 rmoveto
          -25 -29 4 3 -19 hvcurveto
          70 34 callgsubr
          366 vlineto
          0 13 -55 callgsubr
          -122 vlineto
          -61 -25 -37 -72 vhcurveto
          endchar
        </CharString>
        <CharString name="dvK_LA">
          639 711 433 rmoveto
          -33 callsubr
          -43 -31 -11 -19 -21 hvcurveto
          36 -16 -34 22 -67 211 callgsubr
          111 594 -144 vlineto
          11 -27 -21 5 148 callsubr
          -237 -287 rmoveto
          -90 -88 callsubr
          -1069 -40 285 -479 vlineto
          -103 callgsubr
          -26 vlineto
          0 vlineto
          -2 0 -2 -2 vvcurveto
          endchar
        </CharString>
        <CharString name="dvK_MA">
          605 145 callgsubr
          373 -178 -82 vlineto
          -36 -27 -6 -11 -20 hvcurveto
          57 -6 -32 38 -88 hhcurveto
          291 -329 -75 callgsubr
          -1035 -60 callsubr
          -211 63 callgsubr
        </CharString>
        <CharString name="dvK_NA">
          597 145 callgsubr
          552 236 callgsubr
          -39 -30 -8 -18 -21 hvcurveto
          33 -16 -34 21 -65 hhcurveto
          470 -68 rmoveto
          -436 -104 callsubr
          -1027 -40 285 -479 vlineto
          -103 callgsubr
          -211 vlineto
          -75 43 -37 80 80 43 37 75 vhcurveto
          33 callgsubr
        </CharString>
        <CharString name="dvK_NNA">
          627 744 604 rmoveto
          149 -604 44 -99 callgsubr
          -1057 79 callsubr
          -121 vlineto
          44 callsubr
          -270 359 107 callsubr
          hmoveto
          195 callgsubr
        </CharString>
        <CharString name="dvK_PA">
          447 310 432 rmoveto
          -73 callsubr
          -114 261 callsubr
          -877 -82 callgsubr
          vlineto
          164 604 119 callsubr
          402 hmoveto
          -416 -19 callsubr
          352 vlineto
          endchar
        </CharString>
        <CharString name="dvK_PHA">
          617 699 37 callgsubr
          -1047 -82 callgsubr
          432 vlineto
          -73 callsubr
          -122 147 callgsubr
          -225 470 107 callsubr
          251 callsubr
          endchar
        </CharString>
        <CharString name="dvK_P_RA">
          447 712 hmoveto
          -104 callsubr
          -877 79 callsubr
          -42 vlineto
          112 callgsubr
          vhcurveto
          6 6 0 5 hhcurveto
          -196 -203 rlineto
          61 hlineto
          210 217 rlineto
          -238 387 119 callsubr
          402 hmoveto
          26 callgsubr
        </CharString>
        <CharString name="dvK_R">
          27 497 386 27 callgsubr
        </CharString>
        <CharString name="dvK_RA">
          212 288 156 rmoveto
          -6 -20 -28 -4 -30 hhcurveto
          102 callsubr
          -166 vlineto
          -75 47 -42 90 vhcurveto
          103 callgsubr
          -113 45 453 vlineto
          110 callgsubr
          -642 -40 308 vlineto
          endchar
        </CharString>
        <CharString name="dvK_SA">
          609 759 11 -89 callgsubr
          171 -297 -104 callsubr
          -1039 -40 285 -479 hlineto
          -6 -20 -28 -4 -30 hhcurveto
          -70 -22 30 45 hvcurveto
          197 vlineto
          45 22 30 70 9 12 -1 -1 9 vhcurveto
          41 vlineto
          2 -9 -12 1 -9 hhcurveto
          -90 -47 -42 -75 hvcurveto
          24 callgsubr
        </CharString>
        <CharString name="dvK_SHA">
          601 866 644 183 callgsubr
          -257 -117 rmoveto
          75 -45 47 -95 -95 -45 -47 -75 -17 3 -20 -8 callgsubr
          -3 18 19 vvcurveto
          -47 callsubr
          -145 vlineto
          -45 -20 -35 -75 -34 -34 7 9 -27 vhcurveto
          35 vlineto
          69 -27 49 -100 66 callgsubr
          vhcurveto
          144 104 40 -434 -82 callgsubr
          419 vlineto
          -73 callsubr
          -220 22 callsubr
        </CharString>
        <CharString name="dvK_SS">
          -390 endchar
        </CharString>
        <CharString name="dvK_SSA">
          -390 endchar
        </CharString>
        <CharString name="dvK_SS_MA">
          -390 endchar
        </CharString>
        <CharString name="dvK_SS_M_YA">
          884 658 175 -22 callgsubr
          -890 -40 254 -178 -82 vlineto
          -65 callsubr
          76 vlineto
          46 18 -7 -49 hvcurveto
          -77 182 callgsubr
          vlineto
          endchar
        </CharString>
        <CharString name="dvK_SS_VA">
          447 712 289 callsubr
          -182 vlineto
          -52 callsubr
          -460 -40 315 vlineto
          -474 vmoveto
          -99 callsubr
          endchar
        </CharString>
        <CharString name="dvK_SS_YA">
          518 656 529 88 callsubr
          -531 -40 vlineto
          endchar
        </CharString>
        <CharString name="dvK_S_DDA">
          837 734 383 rmoveto
          -66 callgsubr
          372 203 callsubr
          -41 vlineto
          -4 0 -4 -4 vvcurveto
          -148 hlineto
          5 14 2 15 17 vvcurveto
          -140 -80 -42 callsubr
          578 -144 -45 callgsubr
          -1267 -40 callsubr
          50 36 13 23 23 hvcurveto
          181 hlineto
          -42 18 43 -22 70 hhcurveto
          97 callgsubr
        </CharString>
        <CharString name="dvK_S_P_LA">
          1273 594 303 -42 callsubr
          283 301 rmoveto
          -257 -147 vlineto
          3 11 1 12 13 -54 callsubr
          297 -431 rmoveto
          132 callsubr
          616 -144 vlineto
          -31 callgsubr
          -169 vlineto
          -6 -22 -32 -6 -31 hhcurveto
          -264 -162 143 callsubr
          57 38 17 29 23 hvcurveto
          165 -55 hlineto
          112 callgsubr
          31 31 6 6 23 vhcurveto
          -87 -88 callsubr
          -1703 -40 285 -479 vlineto
          -103 callgsubr
          294 callgsubr
          endchar
        </CharString>
        <CharString name="dvK_S_P_RA">
          852 594 303 -42 callsubr
          285 301 rmoveto
          -257 -149 vlineto
          3 11 1 12 13 -54 callsubr
          391 -604 rmoveto
          -104 callsubr
          -1282 -40 callsubr
          57 38 17 29 23 hvcurveto
          168 hlineto
          -65 7 50 -39 88 -46 callgsubr
        </CharString>
        <CharString name="dvK_S_TA">
          857 877 383 rmoveto
          -46 -150 vlineto
          -83 callsubr
          396 -114 hlineto
          316 callsubr
          -283 -80 -42 callsubr
          283 -188 rmoveto
          -78 callgsubr
          -1287 -40 285 -479 vlineto
          35 callgsubr
          50 36 13 23 23 hvcurveto
          174 hlineto
          endchar
        </CharString>
        <CharString name="dvK_S_TTA">
          815 880 387 rmoveto
          -50 -153 vlineto
          -83 callsubr
          364 166 callsubr
          -286 -84 -42 callsubr
          331 84 rmoveto
          29 callgsubr
          -1245 -40 callsubr
          50 36 13 23 23 hvcurveto
          177 114 callsubr
        </CharString>
        <CharString name="dvK_TA">
          206 327 435 rmoveto
          8 26 20 2 26 hhcurveto
          70 22 -30 -45 hvcurveto
          -204 212 callgsubr
          -7 0 1 -7 vhcurveto
          -42 vlineto
          -1 8 8 0 8 hhcurveto
          82 34 53 64 hvcurveto
          204 vlineto
          75 -47 42 -90 -28 -23 222 callgsubr
          128 289 40 -636 -40 302 -128 vlineto
          4 -26 -23 2 -33 hhcurveto
          -188 -40 83 hlineto
          -15 -20 -7 -25 -30 vvcurveto
          -201 -75 callsubr
          201 vlineto
          45 12 30 70 30 27 -2 -4 25 vhcurveto
          -436 45 vlineto
          endchar
        </CharString>
        <CharString name="dvK_THA">
          569 519 271 41 callsubr
          -34 hlineto
          53 -8 -32 36 -85 211 callgsubr
          161 139 40 -469 -82 callgsubr
          402 vlineto
          -73 callsubr
          -65 164 callsubr
        </CharString>
        <CharString name="dvK_TTA">
          409 519 129 rmoveto
          258 vlineto
          29 callgsubr
          -839 -60 callsubr
          -257 5 callsubr
          -127 375 rmoveto
          66 callgsubr
          hvcurveto
          111 374 -100 -70 296 callsubr
          endchar
        </CharString>
        <CharString name="dvK_T_RA">
          474 145 callgsubr
          429 -121 vlineto
          9 -31 -33 6 -40 hhcurveto
          -60 -43 -15 -29 -27 hvcurveto
          31 -17 -34 19 -62 hhcurveto
          350 -224 234 callgsubr
          -904 -40 285 -479 vlineto
          -103 callgsubr
          -78 90 callsubr
        </CharString>
        <CharString name="dvK_T_VA">
          678 145 callgsubr
          633 161 callgsubr
          -38 -31 -8 -14 -23 hvcurveto
          7 -45 -42 5 -40 hhcurveto
          -55 -40 -15 -25 -25 hvcurveto
          30 -17 -34 19 -62 hhcurveto
          204 -505 rmoveto
          117 callgsubr
          -1108 -40 285 -479 vlineto
          -103 callgsubr
          -271 -20 callgsubr
          347 131 22 callgsubr
          endchar
        </CharString>
        <CharString name="dvK_T_YA">
          759 639 469 rmoveto
          -20 hlineto
          -47 -36 -11 -21 -24 hvcurveto
          41 -13 -34 26 -73 211 callgsubr
          111 534 vlineto
          120 callgsubr
          258 60 -107 callsubr
          -301 -457 127 callgsubr
          -1189 -40 285 -479 vlineto
          -103 callgsubr
          -26 1 vlineto
          -1 -4 0 -5 -4 vvcurveto
          -232 -20 callgsubr
          endchar
        </CharString>
        <CharString name="dvK_VA">
          454 392 95 callgsubr
          -82 -52 rmoveto
          -73 callsubr
          -187 vlineto
          -52 callsubr
          -884 -82 callgsubr
          vlineto
          409 130 22 callgsubr
          endchar
        </CharString>
        <CharString name="dvK_V_YA">
          760 898 529 -107 callsubr
          -588 -456 rmoveto
          452 vlineto
          -73 callsubr
          -195 295 callgsubr
          59 -12 62 -13 callsubr
          -1190 -18 callsubr
          351 116 rmoveto
          -75 -22 30 45 hvcurveto
          176 vlineto
          128 callgsubr
          -49 -37 -11 -22 -24 hvcurveto
          33 -16 -34 20 -64 211 callgsubr
          111 535 vlineto
          247 callgsubr
          vhcurveto
          endchar
        </CharString>
        <CharString name="dvK_YA">
          515 310 452 rmoveto
          -73 callsubr
          -133 vlineto
          -92 callgsubr
          -945 -82 callgsubr
          vlineto
          209 111 callgsubr
          -3 vhcurveto
          134 188 callgsubr
          endchar
        </CharString>
        <CharString name="dvKx">
          4 119 -56 rmoveto
          -107 callgsubr
          191 508 40 callgsubr
        </CharString>
        <CharString name="dvKxA">
          184 109 -36 rmoveto
          -107 callgsubr
          161 640 16 callsubr
          endchar
        </CharString>
        <CharString name="dvKx_BA">
          441 119 -56 rmoveto
          -107 callgsubr
          273 560 rmoveto
          66 callgsubr
          hvcurveto
          111 399 -113 vlineto
          4 -9 -31 10 -49 hhcurveto
          -55 -41 -16 -27 -24 hvcurveto
          26 -18 -33 16 -57 hhcurveto
          -82 -52 rmoveto
          -73 callsubr
          -191 vlineto
          86 callgsubr
          -871 -82 callgsubr
          vlineto
          310 463 rmoveto
          -17 callsubr
          -347 vmoveto
          -44 callgsubr
          151 vlineto
          190 -144 rlineto
          -72 vlineto
          -4 -9 -31 -10 -49 hhcurveto
          endchar
        </CharString>
</ttFont>
